<svg width="27" height="26" viewBox="0 0 27 26" fill="none" xmlns="http://www.w3.org/2000/svg">
<path d="M20.7446 15.4L6.64461 15.4C5.64446 15.4 1.95709 15.3436 1.14453 12.5C0.144408 9 4.64443 8.5 5.14454 8.5M20.7446 15.4L15.9446 20.2M20.7446 15.4L15.9446 10.6M8.74458 19.5C8.74458 21.5162 8.74458 22.2643 9.13696 23.0344C9.4821 23.7117 10.0328 24.2625 10.7102 24.6076C11.4803 25 12.4884 25 14.5046 25H19.7846C21.8008 25 22.8089 25 23.5789 24.6076C24.2563 24.2625 24.8071 23.7117 25.1522 23.0344C25.5446 22.2643 25.5446 21.2562 25.5446 19.24L25.5446 6.76C25.5446 4.74381 25.5446 3.73572 25.1522 2.96563C24.8071 2.28825 24.2563 1.73752 23.579 1.39238C22.8089 1 21.8008 1 19.7846 1L14.5046 1C12.4884 1 11.4803 1 10.7102 1.39238C10.0328 1.73752 9.4821 2.28825 9.13696 2.96563C8.74458 3.73572 8.74458 4.74381 8.74458 6.76V11.5" stroke="#CCCCCC" stroke-width="2" stroke-linecap="round" stroke-linejoin="round"/>
</svg>
