<svg width="40" height="40" viewBox="0 0 40 40" fill="none" xmlns="http://www.w3.org/2000/svg">
<circle cx="20" cy="20" r="20" fill="url(#paint0_linear_99_486)" fill-opacity="0.2"/>
<path d="M31.2712 18.6782L30.0525 17.4595C29.5894 16.9964 29.3291 16.3683 29.3291 15.7134V13.9873C29.3291 13.3326 29.069 12.7048 28.6061 12.2419C28.1432 11.779 27.5153 11.5189 26.8607 11.5189H25.1401C24.816 11.519 24.4951 11.4553 24.1957 11.3314C23.8963 11.2074 23.6243 11.0257 23.3951 10.7965L22.1764 9.57785C21.9473 9.34848 21.6752 9.16653 21.3757 9.04238C21.0762 8.91824 20.7552 8.85434 20.4309 8.85434C20.1067 8.85434 19.7857 8.91824 19.4862 9.04238C19.1867 9.16653 18.9146 9.34848 18.6854 9.57785L17.4668 10.7965C17.2374 11.0257 16.9652 11.2075 16.6656 11.3314C16.366 11.4554 16.0449 11.5191 15.7207 11.5189H13.9879C13.3334 11.5192 12.7057 11.7793 12.2428 12.2422C11.78 12.7051 11.5198 13.3327 11.5195 13.9873V15.7123C11.5197 16.0365 11.456 16.3576 11.3321 16.6572C11.2081 16.9568 11.0264 17.229 10.7972 17.4584L9.57849 18.6771C9.34913 18.9062 9.16717 19.1783 9.04302 19.4778C8.91888 19.7773 8.85498 20.0983 8.85498 20.4226C8.85498 20.7468 8.91888 21.0678 9.04302 21.3673C9.16717 21.6668 9.34913 21.9389 9.57849 22.1681L10.7972 23.3867C11.0273 23.6168 11.2095 23.8901 11.3335 24.1909C11.4575 24.4917 11.5207 24.8141 11.5195 25.1394V26.8645C11.521 27.5182 11.7817 28.1446 12.2445 28.6063C12.7072 29.068 13.3342 29.3273 13.9879 29.3273H15.7129C16.3679 29.3274 16.9959 29.5876 17.459 30.0508L18.6777 31.2695C18.9069 31.4987 19.179 31.6805 19.4785 31.8046C19.778 31.9287 20.099 31.9925 20.4232 31.9925C20.7474 31.9925 21.0684 31.9287 21.3679 31.8046C21.6674 31.6805 21.9395 31.4987 22.1687 31.2695L23.3874 30.0508C23.6174 29.8206 23.8907 29.6381 24.1915 29.514C24.4923 29.3898 24.8147 29.3264 25.1401 29.3273H26.8651C27.1893 29.3275 27.5103 29.2637 27.8099 29.1397C28.1094 29.0157 28.3816 28.8339 28.6108 28.6047C28.8401 28.3754 29.0219 28.1032 29.1459 27.8037C29.2699 27.5042 29.3336 27.1831 29.3335 26.8589V25.1394C29.3336 24.8153 29.3975 24.4944 29.5216 24.195C29.6458 23.8956 29.8277 23.6236 30.057 23.3945L31.2757 22.1758C31.5056 21.9462 31.6879 21.6734 31.8122 21.3731C31.9365 21.0729 32.0002 20.751 31.9998 20.4261C31.9994 20.1011 31.9348 19.7794 31.8098 19.4795C31.6848 19.1795 31.5017 18.9072 31.2712 18.6782ZM25.6209 18.3923L22.7747 21.2385L21.0276 22.9901L19.9329 24.0847C19.7908 24.2267 19.5982 24.3065 19.3973 24.3065C19.1964 24.3065 19.0037 24.2267 18.8616 24.0847L15.2221 20.4464C15.0801 20.3043 15.0004 20.1116 15.0004 19.9107C15.0004 19.7098 15.0801 19.5171 15.2221 19.375L15.7816 18.8211C15.9237 18.6791 16.1164 18.5993 16.3173 18.5993C16.5182 18.5993 16.7109 18.6791 16.853 18.8211L18.8616 20.8297C19.0037 20.9717 19.1964 21.0515 19.3973 21.0515C19.5982 21.0515 19.7908 20.9717 19.9329 20.8297L21.1516 19.611L23.9989 16.7648C24.141 16.6228 24.3337 16.543 24.5346 16.543C24.7355 16.543 24.9282 16.6228 25.0703 16.7648L25.6242 17.3243C25.7654 17.4661 25.8447 17.658 25.8449 17.8581C25.8451 18.0582 25.7662 18.2502 25.6253 18.3923H25.6209Z" fill="url(#paint1_linear_99_486)"/>
<defs>
<linearGradient id="paint0_linear_99_486" x1="-6.65896e-07" y1="3.75" x2="40" y2="40" gradientUnits="userSpaceOnUse">
<stop stop-color="#FEC6C6"/>
<stop offset="1" stop-color="#FDA0FF"/>
</linearGradient>
<linearGradient id="paint1_linear_99_486" x1="8.85498" y1="11.0235" x2="31.9938" y2="31.9991" gradientUnits="userSpaceOnUse">
<stop stop-color="#FEC6C6"/>
<stop offset="1" stop-color="#FDA0FF"/>
</linearGradient>
</defs>
</svg>
