<svg width="193" height="107" viewBox="0 0 193 107" fill="none" xmlns="http://www.w3.org/2000/svg">
<g clip-path="url(#clip0_700_589)">
<path d="M72.7778 0C67.4093 0 63 4.40929 63 9.77778V54.2222C63 59.5907 67.4093 64 72.7778 64H117.222C122.591 64 127 59.5907 127 54.2222V9.77778C127 4.40929 122.591 0 117.222 0H72.7778ZM72.7778 5.33333H117.222C119.708 5.33333 121.667 7.29204 121.667 9.77778V54.2222C121.667 54.458 121.631 54.6847 121.597 54.9097L100.003 34.0174C98.6193 32.6781 96.8088 32.0104 95 32.0104C93.1912 32.0104 91.3842 32.6781 90 34.0174L68.4028 54.9097C68.3688 54.6847 68.3333 54.458 68.3333 54.2222V9.77778C68.3333 7.29204 70.292 5.33333 72.7778 5.33333ZM106.556 12.4444C104.111 12.4444 101.94 13.4571 100.562 15.0069C99.1849 16.5568 98.5556 18.5185 98.5556 20.4444C98.5556 22.3704 99.1849 24.3321 100.562 25.8819C101.94 27.4318 104.111 28.4444 106.556 28.4444C109 28.4444 111.171 27.4318 112.549 25.8819C113.926 24.3321 114.556 22.3704 114.556 20.4444C114.556 18.5185 113.926 16.5568 112.549 15.0069C111.171 13.4571 109 12.4444 106.556 12.4444ZM106.556 17.7778C107.667 17.7778 108.162 18.0984 108.562 18.5486C108.963 18.9988 109.222 19.7037 109.222 20.4444C109.222 21.1852 108.963 21.8901 108.562 22.3403C108.162 22.7905 107.667 23.1111 106.556 23.1111C105.444 23.1111 104.949 22.7905 104.549 22.3403C104.148 21.8901 103.889 21.1852 103.889 20.4444C103.889 19.7037 104.148 18.9988 104.549 18.5486C104.949 18.0984 105.444 17.7778 106.556 17.7778ZM95.0035 37.3125C95.4649 37.3125 95.9246 37.4922 96.2951 37.8507L117.757 58.6146C117.58 58.6353 117.406 58.6667 117.222 58.6667H72.7778C72.5945 58.6667 72.42 58.6353 72.2431 58.6146L93.7083 37.8507C94.0788 37.4922 94.542 37.3125 95.0035 37.3125Z" fill="#343655"/>
</g>
<path d="M30.7344 85.0234C29.125 85.0234 27.8594 85.5938 26.9375 86.7344C26.0156 87.875 25.5547 89.4492 25.5547 91.457C25.5547 93.5586 25.9961 95.1484 26.8789 96.2266C27.7695 97.3047 29.0547 97.8438 30.7344 97.8438C31.4609 97.8438 32.1641 97.7734 32.8438 97.6328C33.5234 97.4844 34.2305 97.2969 34.9648 97.0703V99.4727C33.6211 99.9805 32.0977 100.234 30.3945 100.234C27.8867 100.234 25.9609 99.4766 24.6172 97.9609C23.2734 96.4375 22.6016 94.2617 22.6016 91.4336C22.6016 89.6523 22.9258 88.0938 23.5742 86.7578C24.2305 85.4219 25.1758 84.3984 26.4102 83.6875C27.6445 82.9766 29.0938 82.6211 30.7578 82.6211C32.5078 82.6211 34.125 82.9883 35.6094 83.7227L34.6016 86.0547C34.0234 85.7812 33.4102 85.543 32.7617 85.3398C32.1211 85.1289 31.4453 85.0234 30.7344 85.0234ZM49.8594 93.4961C49.8594 95.6133 49.3164 97.2656 48.2305 98.4531C47.1445 99.6406 45.6328 100.234 43.6953 100.234C42.4844 100.234 41.4141 99.9609 40.4844 99.4141C39.5547 98.8672 38.8398 98.082 38.3398 97.0586C37.8398 96.0352 37.5898 94.8477 37.5898 93.4961C37.5898 91.3945 38.1289 89.7539 39.207 88.5742C40.2852 87.3945 41.8047 86.8047 43.7656 86.8047C45.6406 86.8047 47.125 87.4102 48.2188 88.6211C49.3125 89.8242 49.8594 91.4492 49.8594 93.4961ZM40.4258 93.4961C40.4258 96.4883 41.5312 97.9844 43.7422 97.9844C45.9297 97.9844 47.0234 96.4883 47.0234 93.4961C47.0234 90.5352 45.9219 89.0547 43.7188 89.0547C42.5625 89.0547 41.7227 89.4375 41.1992 90.2031C40.6836 90.9688 40.4258 92.0664 40.4258 93.4961ZM63.957 100H61.1914V92.0078C61.1914 91.0156 61.0039 90.2773 60.6289 89.793C60.2539 89.3008 59.668 89.0547 58.8711 89.0547C57.8086 89.0547 57.0273 89.4023 56.5273 90.0977C56.0352 90.7852 55.7891 91.9336 55.7891 93.543V100H53.0352V87.0391H55.1914L55.5781 88.7383H55.7188C56.0781 88.1211 56.5977 87.6445 57.2773 87.3086C57.9648 86.9727 58.7188 86.8047 59.5391 86.8047C61.5312 86.8047 62.8516 87.4844 63.5 88.8438H63.6875C64.0703 88.2031 64.6094 87.7031 65.3047 87.3438C66 86.9844 66.7969 86.8047 67.6953 86.8047C69.2422 86.8047 70.3672 87.1953 71.0703 87.9766C71.7812 88.7578 72.1367 89.9492 72.1367 91.5508V100H69.3828V92.0078C69.3828 91.0156 69.1914 90.2773 68.8086 89.793C68.4336 89.3008 67.8477 89.0547 67.0508 89.0547C65.9805 89.0547 65.1953 89.3906 64.6953 90.0625C64.2031 90.7266 63.957 91.75 63.957 93.1328V100ZM78.7344 100H75.9805V87.0391H78.7344V100ZM75.8164 83.6055C75.8164 83.1133 75.9492 82.7344 76.2148 82.4688C76.4883 82.2031 76.875 82.0703 77.375 82.0703C77.8594 82.0703 78.2344 82.2031 78.5 82.4688C78.7734 82.7344 78.9102 83.1133 78.9102 83.6055C78.9102 84.0742 78.7734 84.4453 78.5 84.7188C78.2344 84.9844 77.8594 85.1172 77.375 85.1172C76.875 85.1172 76.4883 84.9844 76.2148 84.7188C75.9492 84.4453 75.8164 84.0742 75.8164 83.6055ZM94.0859 100H91.3203V92.0312C91.3203 91.0312 91.1172 90.2852 90.7109 89.793C90.3125 89.3008 89.6758 89.0547 88.8008 89.0547C87.6367 89.0547 86.7852 89.3984 86.2461 90.0859C85.707 90.7734 85.4375 91.9258 85.4375 93.543V100H82.6836V87.0391H84.8398L85.2266 88.7383H85.3672C85.7578 88.1211 86.3125 87.6445 87.0312 87.3086C87.75 86.9727 88.5469 86.8047 89.4219 86.8047C92.5312 86.8047 94.0859 88.3867 94.0859 91.5508V100ZM108.863 87.0391V88.5508L106.648 88.9609C106.852 89.2344 107.02 89.5703 107.152 89.9688C107.285 90.3672 107.352 90.7891 107.352 91.2344C107.352 92.5703 106.891 93.6211 105.969 94.3867C105.047 95.1523 103.777 95.5352 102.16 95.5352C101.746 95.5352 101.371 95.5039 101.035 95.4414C100.441 95.8086 100.145 96.2383 100.145 96.7305C100.145 97.0273 100.281 97.25 100.555 97.3984C100.836 97.5469 101.348 97.6211 102.09 97.6211H104.352C105.781 97.6211 106.867 97.9258 107.609 98.5352C108.352 99.1445 108.723 100.023 108.723 101.172C108.723 102.641 108.117 103.773 106.906 104.57C105.695 105.367 103.945 105.766 101.656 105.766C99.8906 105.766 98.543 105.453 97.6133 104.828C96.6836 104.203 96.2188 103.312 96.2188 102.156C96.2188 101.359 96.4688 100.688 96.9688 100.141C97.4766 99.6016 98.1836 99.2266 99.0898 99.0156C98.7227 98.8594 98.418 98.6094 98.1758 98.2656C97.9414 97.9141 97.8242 97.5469 97.8242 97.1641C97.8242 96.6797 97.9609 96.2695 98.2344 95.9336C98.5078 95.5977 98.9141 95.2656 99.4531 94.9375C98.7812 94.6484 98.2344 94.1797 97.8125 93.5312C97.3984 92.875 97.1914 92.1094 97.1914 91.2344C97.1914 89.8281 97.6328 88.7383 98.5156 87.9648C99.4062 87.1914 100.672 86.8047 102.312 86.8047C102.68 86.8047 103.062 86.832 103.461 86.8867C103.867 86.9336 104.172 86.9844 104.375 87.0391H108.863ZM98.6797 102.016C98.6797 102.609 98.9453 103.066 99.4766 103.387C100.016 103.707 100.77 103.867 101.738 103.867C103.238 103.867 104.355 103.652 105.09 103.223C105.824 102.793 106.191 102.223 106.191 101.512C106.191 100.949 105.988 100.547 105.582 100.305C105.184 100.07 104.438 99.9531 103.344 99.9531H101.258C100.469 99.9531 99.8398 100.137 99.3711 100.504C98.9102 100.879 98.6797 101.383 98.6797 102.016ZM99.8633 91.2344C99.8633 92.0469 100.07 92.6719 100.484 93.1094C100.906 93.5469 101.508 93.7656 102.289 93.7656C103.883 93.7656 104.68 92.9141 104.68 91.2109C104.68 90.3672 104.48 89.7188 104.082 89.2656C103.691 88.8047 103.094 88.5742 102.289 88.5742C101.492 88.5742 100.887 88.8008 100.473 89.2539C100.066 89.707 99.8633 90.3672 99.8633 91.2344ZM126.219 96.3086C126.219 97.5742 125.758 98.5469 124.836 99.2266C123.914 99.8984 122.594 100.234 120.875 100.234C119.148 100.234 117.762 99.9727 116.715 99.4492V97.0703C118.238 97.7734 119.656 98.125 120.969 98.125C122.664 98.125 123.512 97.6133 123.512 96.5898C123.512 96.2617 123.418 95.9883 123.23 95.7695C123.043 95.5508 122.734 95.3242 122.305 95.0898C121.875 94.8555 121.277 94.5898 120.512 94.293C119.02 93.7148 118.008 93.1367 117.477 92.5586C116.953 91.9805 116.691 91.2305 116.691 90.3086C116.691 89.1992 117.137 88.3398 118.027 87.7305C118.926 87.1133 120.145 86.8047 121.684 86.8047C123.207 86.8047 124.648 87.1133 126.008 87.7305L125.117 89.8047C123.719 89.2266 122.543 88.9375 121.59 88.9375C120.137 88.9375 119.41 89.3516 119.41 90.1797C119.41 90.5859 119.598 90.9297 119.973 91.2109C120.355 91.4922 121.184 91.8789 122.457 92.3711C123.527 92.7852 124.305 93.1641 124.789 93.5078C125.273 93.8516 125.633 94.25 125.867 94.7031C126.102 95.1484 126.219 95.6836 126.219 96.3086ZM140.703 93.4961C140.703 95.6133 140.16 97.2656 139.074 98.4531C137.988 99.6406 136.477 100.234 134.539 100.234C133.328 100.234 132.258 99.9609 131.328 99.4141C130.398 98.8672 129.684 98.082 129.184 97.0586C128.684 96.0352 128.434 94.8477 128.434 93.4961C128.434 91.3945 128.973 89.7539 130.051 88.5742C131.129 87.3945 132.648 86.8047 134.609 86.8047C136.484 86.8047 137.969 87.4102 139.062 88.6211C140.156 89.8242 140.703 91.4492 140.703 93.4961ZM131.27 93.4961C131.27 96.4883 132.375 97.9844 134.586 97.9844C136.773 97.9844 137.867 96.4883 137.867 93.4961C137.867 90.5352 136.766 89.0547 134.562 89.0547C133.406 89.0547 132.566 89.4375 132.043 90.2031C131.527 90.9688 131.27 92.0664 131.27 93.4961ZM155.375 93.4961C155.375 95.6133 154.832 97.2656 153.746 98.4531C152.66 99.6406 151.148 100.234 149.211 100.234C148 100.234 146.93 99.9609 146 99.4141C145.07 98.8672 144.355 98.082 143.855 97.0586C143.355 96.0352 143.105 94.8477 143.105 93.4961C143.105 91.3945 143.645 89.7539 144.723 88.5742C145.801 87.3945 147.32 86.8047 149.281 86.8047C151.156 86.8047 152.641 87.4102 153.734 88.6211C154.828 89.8242 155.375 91.4492 155.375 93.4961ZM145.941 93.4961C145.941 96.4883 147.047 97.9844 149.258 97.9844C151.445 97.9844 152.539 96.4883 152.539 93.4961C152.539 90.5352 151.438 89.0547 149.234 89.0547C148.078 89.0547 147.238 89.4375 146.715 90.2031C146.199 90.9688 145.941 92.0664 145.941 93.4961ZM169.953 100H167.188V92.0312C167.188 91.0312 166.984 90.2852 166.578 89.793C166.18 89.3008 165.543 89.0547 164.668 89.0547C163.504 89.0547 162.652 89.3984 162.113 90.0859C161.574 90.7734 161.305 91.9258 161.305 93.543V100H158.551V87.0391H160.707L161.094 88.7383H161.234C161.625 88.1211 162.18 87.6445 162.898 87.3086C163.617 86.9727 164.414 86.8047 165.289 86.8047C168.398 86.8047 169.953 88.3867 169.953 91.5508V100Z" fill="#40425A"/>
<defs>
<clipPath id="clip0_700_589">
<rect width="64" height="64" fill="white" transform="translate(63)"/>
</clipPath>
</defs>
</svg>
