<svg width="18" height="19" viewBox="0 0 18 19" fill="none" xmlns="http://www.w3.org/2000/svg">
<path d="M16.3984 7.53113C16.1016 7.22644 15.7969 6.90613 15.6797 6.63269C15.5625 6.35925 15.5703 5.953 15.5625 5.53894C15.5547 4.78113 15.5391 3.91394 14.9375 3.31238C14.3359 2.71082 13.4688 2.69519 12.7109 2.68738C12.2969 2.67957 11.875 2.67175 11.6172 2.57019C11.3594 2.46863 11.0234 2.14832 10.7188 1.85144C10.1797 1.33582 9.5625 0.749878 8.75 0.749878C7.9375 0.749878 7.32031 1.33582 6.78125 1.85144C6.47656 2.14832 6.15625 2.453 5.88281 2.57019C5.60938 2.68738 5.20313 2.67957 4.78906 2.68738C4.03125 2.69519 3.16406 2.71082 2.5625 3.31238C1.96094 3.91394 1.94531 4.78113 1.9375 5.53894C1.92969 5.953 1.92187 6.37488 1.82031 6.63269C1.71875 6.8905 1.39844 7.22644 1.10156 7.53113C0.585938 8.07019 0 8.68738 0 9.49988C0 10.3124 0.585938 10.9296 1.10156 11.4686C1.39844 11.7733 1.70312 12.0936 1.82031 12.3671C1.9375 12.6405 1.92969 13.0468 1.9375 13.4608C1.94531 14.2186 1.96094 15.0858 2.5625 15.6874C3.16406 16.2889 4.03125 16.3046 4.78906 16.3124C5.20313 16.3202 5.625 16.328 5.88281 16.4296C6.14062 16.5311 6.47656 16.8514 6.78125 17.1483C7.32031 17.6639 7.9375 18.2499 8.75 18.2499C9.5625 18.2499 10.1797 17.6639 10.7188 17.1483C11.0234 16.8514 11.3438 16.5468 11.6172 16.4296C11.8906 16.3124 12.2969 16.3202 12.7109 16.3124C13.4688 16.3046 14.3359 16.2889 14.9375 15.6874C15.5391 15.0858 15.5547 14.2186 15.5625 13.4608C15.5703 13.0468 15.5781 12.6249 15.6797 12.3671C15.7812 12.1093 16.1016 11.7733 16.3984 11.4686C16.9141 10.9296 17.5 10.3124 17.5 9.49988C17.5 8.68738 16.9141 8.07019 16.3984 7.53113ZM12.6172 8.078L8.03906 12.453C7.92071 12.5643 7.76405 12.6259 7.60156 12.6249C7.44146 12.6255 7.28739 12.5639 7.17188 12.453L4.88281 10.2655C4.81932 10.2101 4.76769 10.1425 4.73101 10.0666C4.69434 9.99074 4.67338 9.90825 4.6694 9.82409C4.66541 9.73992 4.67849 9.65582 4.70784 9.57684C4.73719 9.49786 4.78221 9.42563 4.84018 9.36449C4.89816 9.30335 4.9679 9.25457 5.04521 9.22107C5.12253 9.18757 5.20581 9.17005 5.29007 9.16956C5.37432 9.16907 5.45781 9.18562 5.53551 9.21822C5.6132 9.25082 5.6835 9.29879 5.74219 9.35925L7.60156 11.1327L11.7578 7.17175C11.8793 7.06573 12.0371 7.01078 12.1982 7.01841C12.3593 7.02603 12.5112 7.09563 12.6222 7.21265C12.7332 7.32967 12.7946 7.48507 12.7937 7.64634C12.7928 7.80761 12.7295 7.96228 12.6172 8.078Z" fill="#73CDFF"/>
</svg>
