<svg width="16" height="16" viewBox="0 0 16 16" fill="none" xmlns="http://www.w3.org/2000/svg">
<path d="M7.50326 -0.00012207H8.50357C8.54276 0.0110575 8.5827 0.0194415 8.62307 0.0249668C9.81655 0.104218 10.9746 0.463703 12.0032 1.07427C14.1204 2.34052 15.4216 4.18824 15.8775 6.62038C15.9321 6.91555 15.9602 7.21071 16 7.50587V8.50647C15.9779 8.69685 15.9572 8.88723 15.9307 9.07761C15.6963 10.9123 14.8159 12.6034 13.4476 13.8474C11.4234 15.6952 9.03766 16.3563 6.35246 15.8191C4.46532 15.4511 2.78512 14.3877 1.6445 12.8395C0.998345 12.0089 0.526828 11.0563 0.258318 10.0387C-0.0101914 9.02117 -0.0701442 7.95982 0.0820672 6.9185C0.277505 5.35143 0.950223 3.88246 2.00892 2.71095C3.20632 1.33424 4.84618 0.418307 6.64606 0.120895C6.92638 0.070717 7.21556 0.0397249 7.50326 -0.00012207ZM10.1708 11.4153C10.3596 11.7178 10.547 12.0056 10.727 12.3008C10.7816 12.3908 10.8376 12.3967 10.9306 12.3672C11.898 12.0573 12.8095 11.5944 13.6305 10.9962C13.6897 10.9495 13.7288 10.8819 13.7397 10.8073C13.956 8.55073 13.3664 6.29047 12.0755 4.42732C12.0365 4.36421 11.9809 4.31313 11.9147 4.27974C11.2175 3.96549 10.4833 3.74085 9.72961 3.6112C9.70134 3.60954 9.67309 3.61486 9.64736 3.6267C9.62163 3.63854 9.59921 3.65653 9.58207 3.67908C9.50342 3.81947 9.43201 3.96379 9.36814 4.1115C9.33716 4.18086 9.30765 4.2148 9.2206 4.20152C8.4099 4.09158 7.58807 4.09158 6.77737 4.20152C6.75056 4.20005 6.72447 4.19235 6.70116 4.17903C6.67786 4.16571 6.65798 4.14713 6.64311 4.12478C6.56491 3.98458 6.49852 3.837 6.4277 3.68941C6.42317 3.67352 6.41547 3.6587 6.40506 3.64586C6.39465 3.63302 6.38175 3.62242 6.36714 3.6147C6.35253 3.60698 6.3365 3.6023 6.32003 3.60093C6.30357 3.59957 6.28699 3.60155 6.27131 3.60677C5.51397 3.7458 4.7763 3.97624 4.07446 4.29302C4.01884 4.31978 3.97107 4.36045 3.93577 4.41109C2.64832 6.28602 2.05745 8.55254 2.26564 10.8176C2.27286 10.8825 2.30387 10.9425 2.35269 10.9858C3.18848 11.5996 4.1203 12.0704 5.11018 12.379C5.14559 12.3893 5.21346 12.379 5.22969 12.3598C5.43329 12.0499 5.63099 11.7356 5.83902 11.4094C5.63984 11.3209 5.47755 11.253 5.31821 11.1777C5.15887 11.1024 5.01428 11.0183 4.85346 10.9342C5.04526 10.7276 5.05707 10.7246 5.21346 10.7866C6.08442 11.1796 7.02852 11.3841 7.98397 11.3869C8.93943 11.3897 9.88471 11.1907 10.758 10.8028C10.9527 10.7202 10.9807 10.7291 11.1475 10.9416L10.1708 11.4153Z" fill="#FDF5FF" fill-opacity="0.75"/>
</svg>
