<svg width="24" height="24" viewBox="0 0 24 24" fill="none" xmlns="http://www.w3.org/2000/svg">
<path d="M11.2549 0H12.7554C12.8141 0.0167693 12.874 0.0293453 12.9346 0.0376333C14.7248 0.15651 16.4618 0.695737 18.0048 1.61159C21.1805 3.51096 23.1325 6.28254 23.8163 9.93076C23.8982 10.3735 23.9402 10.8162 24 11.259V12.7599C23.9668 13.0455 23.9358 13.331 23.896 13.6166C23.5445 16.3687 22.2239 18.9053 20.1714 20.7714C17.135 23.5429 13.5565 24.5347 9.52868 23.7289C6.69798 23.1768 4.17768 21.5817 2.46675 19.2594C1.49752 18.0136 0.790242 16.5846 0.387477 15.0583C-0.0152872 13.5319 -0.105216 11.9399 0.123101 10.3779C0.416258 8.02733 1.42534 5.82387 3.01338 4.06661C4.80948 2.00155 7.26926 0.627644 9.96908 0.181525C10.3896 0.106259 10.8233 0.0597705 11.2549 0ZM15.2561 17.1231C15.5394 17.577 15.8205 18.0086 16.0905 18.4514C16.1723 18.5864 16.2564 18.5953 16.3959 18.551C17.8469 18.0862 19.2142 17.3918 20.4458 16.4944C20.5346 16.4244 20.5932 16.323 20.6096 16.2111C20.934 12.8263 20.0496 9.43589 18.1132 6.64117C18.0548 6.5465 17.9713 6.46988 17.872 6.41979C16.8262 5.94842 15.7249 5.61146 14.5944 5.41698C14.552 5.41449 14.5096 5.42248 14.471 5.44023C14.4325 5.45799 14.3988 5.48498 14.3731 5.51881C14.2551 5.72938 14.148 5.94588 14.0522 6.16743C14.0057 6.27147 13.9615 6.32239 13.8309 6.30247C12.6149 6.13755 11.3821 6.13755 10.166 6.30247C10.1258 6.30026 10.0867 6.28871 10.0517 6.26873C10.0168 6.24875 9.98697 6.22088 9.96466 6.18735C9.84737 5.97705 9.74778 5.75568 9.64155 5.53431C9.63475 5.51046 9.6232 5.48824 9.60759 5.46898C9.59197 5.44972 9.57263 5.43382 9.55071 5.42223C9.52879 5.41065 9.50476 5.40363 9.48005 5.40158C9.45535 5.39954 9.43049 5.40251 9.40696 5.41034C8.27096 5.61889 7.16445 5.96454 6.11169 6.43972C6.02826 6.47986 5.95661 6.54086 5.90366 6.61682C3.97248 9.42921 3.08618 12.829 3.39846 16.2266C3.40929 16.324 3.45581 16.4139 3.52903 16.4789C4.78271 17.3996 6.18045 18.1058 7.66527 18.5687C7.71838 18.5842 7.82019 18.5687 7.84453 18.5399C8.14993 18.075 8.44649 17.6035 8.75853 17.1143C8.45977 16.9815 8.21633 16.8796 7.97731 16.7667C7.7383 16.6538 7.52142 16.5276 7.28019 16.4015C7.56789 16.0915 7.5856 16.0871 7.82019 16.1801C9.12663 16.7695 10.5428 17.0764 11.976 17.0806C13.4091 17.0848 14.8271 16.7862 16.1369 16.2044C16.4291 16.0805 16.4711 16.0938 16.7212 16.4125L15.2561 17.1231Z" fill="#FDF5FF" fill-opacity="0.75"/>
<path d="M14.8945 14.4001C14.6789 14.401 14.4658 14.3534 14.2712 14.2606C14.0765 14.1679 13.9053 14.0324 13.7702 13.8643C13.5009 13.5406 13.3471 13.1364 13.3331 12.7154C13.3191 12.2945 13.4456 11.8809 13.6928 11.5399C13.8284 11.3449 14.0095 11.1859 14.2203 11.0765C14.4312 10.9672 14.6655 10.9109 14.903 10.9124C15.1405 10.9139 15.374 10.9733 15.5835 11.0853C15.7929 11.1973 15.9719 11.3587 16.105 11.5554C16.3594 11.9229 16.4766 12.368 16.4362 12.8132C16.3957 13.2583 16.2002 13.675 15.8837 13.9905C15.6202 14.2512 15.2651 14.3983 14.8945 14.4001Z" fill="#FDF5FF" fill-opacity="0.75"/>
<path d="M10.696 12.6031C10.707 13.0919 10.5322 13.5665 10.2069 13.9314C10.067 14.0895 9.8941 14.2151 9.70041 14.2991C9.50671 14.3831 9.29694 14.4236 9.08589 14.4177C8.87485 14.4118 8.66767 14.3596 8.47898 14.2649C8.29028 14.1701 8.12467 14.0351 7.99383 13.8694C7.74217 13.5615 7.59283 13.1827 7.56665 12.7859C7.54046 12.3891 7.63874 11.994 7.84777 11.6557C7.9987 11.3975 8.22374 11.1906 8.49366 11.0619C8.76359 10.9332 9.06595 10.8887 9.36152 10.934C9.67672 10.9991 9.96566 11.1559 10.1921 11.3847C10.4185 11.6136 10.5722 11.9042 10.634 12.2202C10.6717 12.3641 10.6827 12.5146 10.696 12.6031Z" fill="#FDF5FF" fill-opacity="0.75"/>
</svg>
