<svg width="24" height="24" viewBox="0 0 24 24" fill="none" xmlns="http://www.w3.org/2000/svg">
<path d="M12 0C9.62653 4.03529e-08 7.30637 0.703843 5.33293 2.02252C3.35949 3.34119 1.82143 5.21547 0.913239 7.40831C0.00505277 9.60115 -0.232458 12.0141 0.230744 14.3419C0.693946 16.6697 1.83705 18.8079 3.51551 20.4861C5.19396 22.1642 7.33236 23.3069 9.66028 23.7697C11.9882 24.2325 14.4011 23.9945 16.5937 23.0859C18.7864 22.1773 20.6604 20.6389 21.9787 18.6652C23.297 16.6915 24.0004 14.3713 24 11.9978C23.9994 8.81557 22.7349 5.76389 20.4845 3.51394C18.2341 1.26398 15.1822 -5.41029e-08 12 0V0ZM8.12761 17.0385C7.12757 17.0456 6.14798 16.7553 5.31316 16.2047C4.47833 15.6541 3.82589 14.8679 3.43862 13.9458C3.05136 13.0238 2.94672 12.0075 3.138 11.0259C3.32928 10.0443 3.80784 9.14163 4.51297 8.43245C5.21809 7.72328 6.11799 7.23956 7.09849 7.04267C8.07898 6.84578 9.09586 6.94459 10.0201 7.32658C10.9443 7.70856 11.7343 8.35649 12.2897 9.18815C12.8451 10.0198 13.1409 10.9977 13.1396 11.9978C13.1425 13.3306 12.6163 14.6101 11.6766 15.5552C10.7369 16.5003 9.46041 17.0338 8.12761 17.0385ZM16.1313 16.742C14.7483 16.742 13.6264 14.6155 13.6264 11.9911C13.6264 9.36677 14.7483 7.24027 16.1313 7.24027C17.5143 7.24027 18.6384 9.36898 18.6384 11.9911C18.6384 14.6133 17.5165 16.7487 16.1313 16.7487V16.742ZM20.0059 16.2552C19.5191 16.2552 19.1208 14.3478 19.1208 11.9978C19.1208 9.64779 19.5191 7.74479 20.0059 7.74479C20.4927 7.74479 20.891 9.65001 20.891 12C20.891 14.35 20.4927 16.2552 20.0059 16.2552Z" fill="#957C9D"/>
</svg>
