<svg width="32" height="33" viewBox="0 0 32 33" fill="none" xmlns="http://www.w3.org/2000/svg">
<path d="M15.0065 0.787109H17.0071C17.0855 0.809468 17.1654 0.826236 17.2461 0.837287C19.6331 0.995789 21.9491 1.71476 24.0064 2.9359C28.2407 5.46839 30.8433 9.16383 31.7551 14.0281C31.8643 14.6184 31.9203 15.2088 32 15.7991V17.8003C31.9557 18.1811 31.9144 18.5618 31.8613 18.9426C31.3926 22.612 29.6319 25.9942 26.8952 28.4822C22.8467 32.1777 18.0753 33.5 12.7049 32.4256C8.93064 31.6896 5.57024 29.5628 3.289 26.4663C1.99669 24.8052 1.05366 22.8999 0.516637 20.8648C-0.0203829 18.8297 -0.140288 16.707 0.164134 14.6243C0.55501 11.4902 1.90045 8.55227 4.01784 6.20925C6.41263 3.45584 9.69235 1.62397 13.2921 1.02914C13.8528 0.928788 14.4311 0.866803 15.0065 0.787109ZM20.3415 23.618C20.7192 24.223 21.094 24.7986 21.4539 25.3889C21.5631 25.569 21.6753 25.5808 21.8612 25.5218C23.7959 24.902 25.619 23.9762 27.2611 22.7797C27.3794 22.6863 27.4576 22.5511 27.4794 22.4019C27.912 17.8888 26.7328 13.3683 24.151 9.642C24.0731 9.51578 23.9617 9.41361 23.8293 9.34684C22.4349 8.71833 20.9665 8.26906 19.4592 8.00975C19.4027 8.00643 19.3462 8.01708 19.2947 8.04076C19.2433 8.06443 19.1984 8.10041 19.1641 8.14552C19.0068 8.42629 18.864 8.71494 18.7363 9.01035C18.6743 9.14908 18.6153 9.21696 18.4412 9.1904C16.8198 8.9705 15.1761 8.9705 13.5547 9.1904C13.5011 9.18746 13.4489 9.17206 13.4023 9.14541C13.3557 9.11877 13.316 9.08162 13.2862 9.03691C13.1298 8.75651 12.997 8.46135 12.8554 8.16618C12.8463 8.13439 12.8309 8.10476 12.8101 8.07908C12.7893 8.0534 12.7635 8.0322 12.7343 8.01675C12.7051 8.00131 12.673 7.99194 12.6401 7.98922C12.6071 7.98649 12.574 7.99046 12.5426 8.00089C11.0279 8.27896 9.5526 8.73983 8.14892 9.3734C8.03769 9.42692 7.94215 9.50825 7.87155 9.60953C5.29664 13.3594 4.1149 17.8924 4.53128 22.4226C4.54572 22.5524 4.60775 22.6723 4.70537 22.759C6.37695 23.9866 8.2406 24.9282 10.2204 25.5454C10.2912 25.566 10.4269 25.5454 10.4594 25.507C10.8666 24.8872 11.262 24.2585 11.678 23.6062C11.2797 23.4291 10.9551 23.2933 10.6364 23.1427C10.3177 22.9922 10.0286 22.824 9.70693 22.6557C10.0905 22.2425 10.1141 22.2366 10.4269 22.3606C12.1688 23.1465 14.057 23.5556 15.9679 23.5612C17.8789 23.5668 19.7694 23.1687 21.5159 22.393C21.9054 22.2277 21.9615 22.2455 22.2949 22.6705L20.3415 23.618Z" fill="#957C9D"/>
<path d="M19.8606 19.9877C19.5731 19.989 19.2891 19.9255 19.0295 19.8018C18.77 19.6781 18.5417 19.4975 18.3616 19.2734C18.0025 18.8417 17.7974 18.3027 17.7787 17.7415C17.76 17.1803 17.9288 16.6288 18.2583 16.1742C18.4392 15.9142 18.6806 15.7021 18.9617 15.5563C19.2429 15.4105 19.5553 15.3354 19.8719 15.3374C20.1886 15.3395 20.5 15.4186 20.7792 15.568C21.0585 15.7174 21.2972 15.9325 21.4747 16.1948C21.8138 16.6848 21.9701 17.2783 21.9162 17.8718C21.8623 18.4653 21.6015 19.0209 21.1796 19.4416C20.8283 19.7893 20.3547 19.9853 19.8606 19.9877Z" fill="#957C9D"/>
<path d="M14.26 17.5908C14.2747 18.2424 14.0416 18.8753 13.6079 19.3618C13.4214 19.5727 13.1908 19.74 12.9326 19.8521C12.6743 19.9641 12.3946 20.0181 12.1132 20.0102C11.8318 20.0023 11.5556 19.9328 11.304 19.8065C11.0524 19.6801 10.8316 19.5001 10.6571 19.2791C10.3216 18.8686 10.1225 18.3636 10.0876 17.8345C10.0526 17.3054 10.1837 16.7786 10.4624 16.3275C10.6636 15.9832 10.9637 15.7074 11.3236 15.5358C11.6835 15.3642 12.0866 15.3048 12.4807 15.3653C12.901 15.4521 13.2862 15.6612 13.5881 15.9663C13.89 16.2714 14.095 16.6589 14.1774 17.0802C14.2276 17.272 14.2423 17.4727 14.26 17.5908Z" fill="#957C9D"/>
</svg>
