<svg width="24" height="24" viewBox="0 0 24 24" fill="none" xmlns="http://www.w3.org/2000/svg">
<path d="M12 0C9.62663 0 7.30655 0.703788 5.33316 2.02236C3.35977 3.34094 1.8217 5.21508 0.913451 7.4078C0.00519946 9.60051 -0.232441 12.0133 0.230582 14.3411C0.693605 16.6689 1.83649 18.807 3.51472 20.4853C5.19295 22.1635 7.33115 23.3064 9.65892 23.7694C11.9867 24.2324 14.3995 23.9948 16.5922 23.0865C18.7849 22.1783 20.6591 20.6402 21.9776 18.6668C23.2962 16.6934 24 14.3734 24 12C24 8.8174 22.7357 5.76515 20.4853 3.51472C18.2348 1.26428 15.1826 0 12 0V0ZM17.4376 18.5291H6.56237V10.0096C6.56295 8.56762 7.13603 7.18488 8.15566 6.16525C9.17529 5.14562 10.558 4.57254 12 4.57195C12.7141 4.57195 13.4212 4.7126 14.0809 4.98587C14.7406 5.25914 15.3401 5.65967 15.845 6.1646C16.3499 6.66953 16.7505 7.26897 17.0237 7.9287C17.297 8.58842 17.4376 9.29551 17.4376 10.0096V18.5291Z" fill="#957C9D"/>
</svg>
