<svg width="32" height="33" viewBox="0 0 32 33" fill="none" xmlns="http://www.w3.org/2000/svg">
<path d="M19.4756 16.6487L14.2298 13.7927C14.0145 13.6688 13.2769 13.8252 13.2769 14.0877V19.6404C13.2769 19.8853 14.0086 20.0416 14.2239 19.9354L19.7058 17.224C19.927 17.0912 19.6969 16.7726 19.4756 16.6487Z" fill="#957C9D"/>
<path d="M16 0.787109C12.8354 0.787109 9.74183 1.72557 7.11058 3.4838C4.47933 5.24203 2.42857 7.74107 1.21765 10.6649C0.00673702 13.5886 -0.309944 16.8059 0.307659 19.9096C0.925261 23.0134 2.44941 25.8643 4.68734 28.1019C6.92528 30.3394 9.77648 31.863 12.8804 32.48C15.9843 33.0971 19.2014 32.7798 22.125 31.5683C25.0485 30.3569 27.5472 28.3057 29.305 25.6741C31.0627 23.0425 32.0006 19.9488 32 16.7842C31.9992 12.5412 30.3132 8.4723 27.3127 5.47236C24.3122 2.47241 20.243 0.787109 16 0.787109V0.787109ZM26.8958 19.6313C26.8958 20.2592 26.7721 20.881 26.5317 21.4611C26.2913 22.0411 25.939 22.5682 25.4949 23.012C25.0507 23.4559 24.5235 23.8079 23.9432 24.0479C23.363 24.288 22.7411 24.4113 22.1132 24.4109H9.88678C8.61914 24.4109 7.40342 23.9074 6.50707 23.011C5.61071 22.1146 5.10714 20.8989 5.10714 19.6313V13.94C5.10714 12.6723 5.61071 11.4566 6.50707 10.5603C7.40342 9.6639 8.61914 9.16033 9.88678 9.16033H22.1132C22.7411 9.15995 23.363 9.28329 23.9432 9.52331C24.5235 9.76334 25.0507 10.1153 25.4949 10.5592C25.939 11.0031 26.2913 11.5301 26.5317 12.1102C26.7721 12.6903 26.8958 13.3121 26.8958 13.94V19.6313Z" fill="#957C9D"/>
</svg>
