<svg width="24" height="24" viewBox="0 0 24 24" fill="none" xmlns="http://www.w3.org/2000/svg">
<path d="M12 0C9.62653 4.03529e-08 7.30637 0.703843 5.33293 2.02252C3.35949 3.34119 1.82143 5.21547 0.913239 7.40831C0.00505277 9.60115 -0.232458 12.0141 0.230744 14.3419C0.693946 16.6697 1.83705 18.8079 3.51551 20.4861C5.19396 22.1642 7.33236 23.3069 9.66028 23.7697C11.9882 24.2325 14.4011 23.9945 16.5937 23.0859C18.7864 22.1773 20.6604 20.6389 21.9787 18.6652C23.297 16.6915 24.0004 14.3713 24 11.9978C23.9994 8.81557 22.7349 5.76389 20.4845 3.51394C18.2341 1.26398 15.1822 -5.41029e-08 12 0V0ZM20.1719 14.1331C20.1719 14.6041 20.0791 15.0704 19.8988 15.5055C19.7185 15.9405 19.4542 16.3358 19.1211 16.6687C18.788 17.0016 18.3926 17.2656 17.9574 17.4456C17.5222 17.6256 17.0559 17.7182 16.5849 17.7179H7.41509C6.46436 17.7179 5.55257 17.3402 4.8803 16.6679C4.20803 15.9957 3.83036 15.0839 3.83036 14.1331V9.86465C3.83036 8.91392 4.20803 8.00213 4.8803 7.32986C5.55257 6.65759 6.46436 6.27992 7.41509 6.27992H16.5849C17.0559 6.27963 17.5222 6.37213 17.9574 6.55215C18.3926 6.73217 18.788 6.99618 19.1211 7.32908C19.4542 7.66198 19.7185 8.05726 19.8988 8.49232C20.0791 8.92738 20.1719 9.39371 20.1719 9.86465V14.1331Z" fill="#957C9D"/>
</svg>
