<svg width="24" height="24" viewBox="0 0 24 24" fill="none" xmlns="http://www.w3.org/2000/svg">
<path d="M12 0C9.62653 4.03529e-08 7.30637 0.703843 5.33293 2.02252C3.35949 3.34119 1.82143 5.21547 0.913239 7.40831C0.00505277 9.60115 -0.232458 12.0141 0.230744 14.3419C0.693946 16.6697 1.83705 18.8079 3.51551 20.4861C5.19396 22.1642 7.33236 23.3069 9.66028 23.7697C11.9882 24.2325 14.4011 23.9945 16.5937 23.0859C18.7864 22.1773 20.6604 20.6389 21.9787 18.6652C23.297 16.6915 24.0004 14.3713 24 11.9978C23.9994 8.81557 22.7349 5.76389 20.4845 3.51394C18.2341 1.26398 15.1822 -5.41029e-08 12 0V0ZM19.7691 8.01033C19.7725 8.09801 19.7468 8.18435 19.6961 8.25595C19.3469 8.74514 18.928 9.18053 18.4525 9.54822C18.3817 9.60133 18.2644 9.65665 18.2644 9.75622C18.2644 12.3231 17.6006 14.8855 15.7396 16.742C13.3498 19.1075 9.77614 19.7514 6.6052 18.8752C5.99082 18.7061 5.39711 18.4694 4.83497 18.1693C4.64688 18.0675 4.46322 17.9635 4.28398 17.844C4.23751 17.8086 4.20432 17.7732 4.24415 17.7488C4.28398 17.7245 4.31275 17.7289 4.45437 17.7488C5.34828 17.8283 6.24881 17.7136 7.09423 17.4125C7.55449 17.251 8.54583 16.9257 8.83128 16.4898C8.83128 16.4898 8.84455 16.4898 8.85341 16.4698C8.73613 16.4433 8.62106 16.4433 8.506 16.4234C7.64522 16.1755 6.49456 15.744 5.96128 14.2925C5.92809 14.2062 5.96128 14.1619 6.04979 14.1796C6.45252 14.2349 6.86168 14.2222 7.26019 14.142C7.12312 14.115 6.98952 14.0727 6.86189 14.0159C6.32319 13.7983 5.85201 13.4414 5.49662 12.9818C5.14123 12.5222 4.91441 11.9764 4.83939 11.4003C4.82024 11.2789 4.81283 11.1559 4.81726 11.033C4.81726 10.9489 4.86152 10.9224 4.93676 10.9688C5.3214 11.1646 5.74111 11.2819 6.1715 11.314C6.03209 11.2056 5.90375 11.0928 5.77762 10.9688C4.83718 10.0837 4.47207 8.26258 5.22442 7.13406C5.28638 7.04333 5.32621 7.04333 5.40144 7.13406C7.123 9.09681 9.24507 10.0107 11.8031 10.3913C11.8694 10.3913 11.8761 10.3913 11.8672 10.3161C11.792 9.87554 11.8033 9.42459 11.9004 8.98838C12.0154 8.52494 12.2315 8.0927 12.5333 7.72266C12.8234 7.36479 13.1833 7.06966 13.591 6.85524C13.9989 6.64267 14.4465 6.51685 14.9054 6.48571C15.3772 6.45347 15.8502 6.52915 16.2884 6.70699C16.6174 6.84116 16.9223 7.02801 17.1912 7.26019C17.2502 7.31104 17.3049 7.36654 17.355 7.42615C17.3712 7.44305 17.3918 7.4551 17.4144 7.46096C17.4371 7.46683 17.4609 7.46626 17.4833 7.45934C18.1309 7.30028 18.7561 7.06092 19.3443 6.74682C19.3573 6.74021 19.3717 6.73676 19.3863 6.73676C19.4009 6.73676 19.4153 6.74021 19.4284 6.74682C19.4549 6.76673 19.4461 6.80214 19.4284 6.82869C19.3166 7.17562 19.1394 7.49788 18.9061 7.77798C18.7579 7.96386 18.3861 8.42191 18.1339 8.46395C18.6742 8.38334 19.202 8.23464 19.705 8.02139C19.7669 7.99262 19.7691 7.97935 19.7691 8.02139V8.01033Z" fill="#957C9D"/>
</svg>
