<svg width="16" height="16" viewBox="0 0 16 16" fill="none" xmlns="http://www.w3.org/2000/svg">
<path d="M16 8.10816C16.0015 9.93088 15.3972 11.701 14.2846 13.1328C13.172 14.5646 11.616 15.5746 9.8676 15.9999V14.6315C9.8676 14.1529 9.8676 13.6729 9.8676 13.1943C9.88668 12.772 9.78417 12.3532 9.57256 11.989C9.51503 11.8962 9.44422 11.814 9.37341 11.7198C9.6537 11.6689 9.92513 11.6315 10.1921 11.5702C10.943 11.3938 11.6142 11.0722 12.101 10.4351C12.4389 9.97725 12.6553 9.43919 12.7295 8.87235C12.8113 8.40432 12.8247 7.92662 12.7693 7.45463C12.7064 6.91143 12.4879 6.3988 12.1409 5.98007C12.1048 5.94058 12.0804 5.8915 12.0708 5.83855C12.0611 5.78559 12.0665 5.73094 12.0863 5.68097C12.2493 5.08391 12.2093 4.44859 11.9727 3.8774C11.9538 3.85008 11.9282 3.82816 11.8985 3.81375C11.8688 3.79934 11.8359 3.79294 11.8031 3.79515C11.5634 3.81564 11.327 3.86587 11.0994 3.9447C10.7262 4.10621 10.3721 4.31259 10.0136 4.51C9.97136 4.54033 9.92296 4.56077 9.87193 4.56982C9.82091 4.57887 9.76854 4.57632 9.71861 4.56234C8.56824 4.26431 7.36242 4.26431 6.21206 4.56234C6.16813 4.57487 6.12197 4.57721 6.07702 4.56919C6.03208 4.56116 5.98949 4.54297 5.95242 4.51598C5.5374 4.21827 5.07548 3.99424 4.58639 3.85347C4.42748 3.81969 4.26618 3.79869 4.104 3.79066C4.03024 3.78169 3.98599 3.82357 3.95648 3.90432C3.73358 4.49644 3.70871 5.1464 3.88567 5.75425C3.89195 5.78097 3.8927 5.80871 3.88787 5.83574C3.88305 5.86276 3.87276 5.88848 3.85764 5.91127C3.21446 6.65902 3.06841 7.55632 3.16873 8.50596C3.21072 8.9768 3.32987 9.43725 3.5213 9.86835C3.83612 10.561 4.40908 11.0988 5.11451 11.3638C5.53714 11.5289 5.97886 11.6385 6.42891 11.6899C6.47612 11.6988 6.5248 11.7093 6.55136 11.7123C6.44367 11.9142 6.33303 12.1116 6.23419 12.3105C6.19713 12.3815 6.17456 12.4593 6.1678 12.5393C6.1678 12.7247 6.04979 12.7876 5.89637 12.8384C5.36087 13.0089 4.83865 13.0283 4.38134 12.65C4.19601 12.4801 4.03379 12.286 3.89895 12.0727C3.70446 11.7567 3.41095 11.516 3.06546 11.3893C2.92127 11.3499 2.77216 11.3323 2.6229 11.3369C2.58569 11.3398 2.54965 11.3515 2.51765 11.3709C2.48564 11.3904 2.45854 11.4172 2.4385 11.4491C2.41933 11.4865 2.48571 11.5792 2.53144 11.6315C2.58499 11.6901 2.6466 11.7404 2.71437 11.7811C3.04757 12.0083 3.30561 12.3319 3.45491 12.7098C3.56039 13.0006 3.71849 13.2689 3.92108 13.5009C4.12107 13.6914 4.35845 13.8371 4.61773 13.9283C4.87701 14.0195 5.15235 14.0543 5.42578 14.0303C5.64116 14.0213 5.85654 13.9854 6.08224 13.963C6.08942 13.997 6.09386 14.0315 6.09552 14.0662C6.09552 14.3653 6.09552 14.6734 6.10585 14.977V15.9894C4.64763 15.6292 3.31879 14.8603 2.27117 13.7707C1.22356 12.6811 0.499426 11.3148 0.181518 9.82776C-0.136389 8.34074 -0.0352463 6.79305 0.473389 5.36154C0.982025 3.93003 1.87764 2.67245 3.05788 1.73249C4.23813 0.792536 5.65541 0.208123 7.14776 0.0460329C8.64011 -0.116057 10.1473 0.150714 11.4972 0.815862C12.8471 1.48101 13.9852 2.51771 14.7814 3.80749C15.5777 5.09727 15.9999 6.58811 16 8.10965V8.10816Z" fill="#FDF5FF" fill-opacity="0.75"/>
</svg>
