<svg width="24" height="24" viewBox="0 0 24 24" fill="none" xmlns="http://www.w3.org/2000/svg">
<g clip-path="url(#clip0_205_5345)">
<path d="M24 12.1624C24.0023 14.8965 23.0959 17.5516 21.4269 19.6993C19.758 21.8471 17.4239 23.3621 14.8014 24V21.9474C14.8014 21.2296 14.8014 20.5095 14.8014 19.7917C14.83 19.1582 14.6762 18.53 14.3588 17.9836C14.2725 17.8445 14.1663 17.7212 14.0601 17.5798C14.4805 17.5036 14.8877 17.4475 15.2882 17.3555C16.4145 17.0908 17.4214 16.6085 18.1516 15.6529C18.6583 14.9661 18.9829 14.159 19.0942 13.3087C19.217 12.6067 19.2371 11.8901 19.154 11.1821C19.0596 10.3673 18.7319 9.59839 18.2113 8.97028C18.1571 8.91105 18.1207 8.83743 18.1062 8.758C18.0917 8.67857 18.0998 8.5966 18.1294 8.52164C18.374 7.62605 18.314 6.67307 17.9591 5.81629C17.9307 5.7753 17.8923 5.74242 17.8478 5.72081C17.8032 5.6992 17.7539 5.68959 17.7046 5.69291C17.345 5.72365 16.9905 5.79899 16.6491 5.91723C16.0892 6.1595 15.5582 6.46907 15.0205 6.76518C14.957 6.81068 14.8844 6.84133 14.8079 6.85491C14.7314 6.86849 14.6528 6.86466 14.5779 6.84369C12.8524 6.39664 11.0436 6.39664 9.31809 6.84369C9.25219 6.86249 9.18296 6.866 9.11554 6.85396C9.04812 6.84192 8.98423 6.81464 8.92864 6.77415C8.3061 6.32758 7.61322 5.99154 6.87959 5.7804C6.64122 5.72971 6.39927 5.69821 6.156 5.68618C6.04536 5.67272 5.97898 5.73553 5.93472 5.85667C5.60038 6.74485 5.56306 7.71978 5.82851 8.63155C5.83792 8.67163 5.83905 8.71325 5.83181 8.75379C5.82457 8.79432 5.80913 8.8329 5.78647 8.86709C4.82169 9.98872 4.60262 11.3347 4.75309 12.7591C4.81607 13.4654 4.99481 14.1561 5.28195 14.8027C5.75418 15.8417 6.61362 16.6484 7.67177 17.046C8.30571 17.2935 8.96829 17.4579 9.64337 17.535C9.71418 17.5484 9.7872 17.5641 9.82703 17.5686C9.6655 17.8715 9.49954 18.1676 9.35128 18.4659C9.2957 18.5724 9.26184 18.6891 9.25171 18.8091C9.25171 19.0873 9.07468 19.1815 8.84455 19.2578C8.04131 19.5135 7.25798 19.5427 6.57201 18.9751C6.29401 18.7203 6.05068 18.4291 5.84842 18.1092C5.55669 17.6352 5.11643 17.2742 4.59819 17.0841C4.3819 17.0251 4.15823 16.9986 3.93436 17.0056C3.87853 17.0099 3.82448 17.0274 3.77647 17.0566C3.72846 17.0858 3.68782 17.1259 3.65776 17.1738C3.62899 17.2299 3.72856 17.369 3.79716 17.4475C3.87749 17.5353 3.9699 17.6108 4.07155 17.6718C4.57136 18.0126 4.95842 18.498 5.18237 19.0649C5.34059 19.5011 5.57773 19.9035 5.88162 20.2515C6.18161 20.5373 6.53768 20.7558 6.9266 20.8926C7.31552 21.0295 7.72853 21.0816 8.13867 21.0457C8.46174 21.0322 8.78481 20.9784 9.12336 20.9447C9.13413 20.9957 9.14079 21.0474 9.14328 21.0995C9.14328 21.5481 9.14328 22.0102 9.15877 22.4656V23.9843C6.97144 23.4439 4.97819 22.2906 3.40676 20.6563C1.83534 19.0219 0.749138 16.9723 0.272277 14.7418C-0.204584 12.5113 -0.0528695 10.1898 0.710084 8.04249C1.47304 5.89523 2.81646 4.00885 4.58683 2.59892C6.3572 1.18899 8.48311 0.312368 10.7216 0.0692324C12.9602 -0.173903 15.221 0.226253 17.2458 1.22398C19.2707 2.2217 20.9778 3.77674 22.1721 5.71141C23.3665 7.64608 23.9999 9.88235 24 12.1647V12.1624Z" fill="white"/>
</g>
<defs>
<clipPath id="clip0_205_5345">
<rect width="24" height="24" fill="white"/>
</clipPath>
</defs>
</svg>
