<svg width="23" height="22" viewBox="0 0 23 22" fill="none" xmlns="http://www.w3.org/2000/svg">
<g clip-path="url(#clip0_205_5334)">
<path d="M22.2843 11.2535C22.2843 10.5057 22.2236 9.75393 22.0943 9.01831H11.7188V13.2542H17.6603C17.4138 14.6204 16.6216 15.8289 15.4615 16.5969V19.3453H19.0063C21.0879 17.4295 22.2843 14.6002 22.2843 11.2535Z" fill="#4285F4"/>
<path d="M11.7205 22.0008C14.6872 22.0008 17.1892 21.0267 19.0121 19.3453L15.4673 16.5968C14.4811 17.2677 13.2079 17.6477 11.7245 17.6477C8.8548 17.6477 6.42158 15.7116 5.54853 13.1086H1.89062V15.942C3.75798 19.6565 7.5614 22.0008 11.7205 22.0008Z" fill="#34A853"/>
<path d="M5.54274 13.1085C5.08197 11.7423 5.08197 10.263 5.54274 8.89684V6.06348H1.88888C0.328708 9.17169 0.328708 12.8336 1.88888 15.9418L5.54274 13.1085Z" fill="#FBBC04"/>
<path d="M11.7205 4.35386C13.2888 4.3296 14.8045 4.91972 15.9402 6.00295L19.0808 2.8624C17.0922 0.995046 14.4528 -0.0315938 11.7205 0.000741277C7.5614 0.000741277 3.75798 2.34504 1.89062 6.06357L5.54449 8.89694C6.4135 6.28992 8.85076 4.35386 11.7205 4.35386Z" fill="#EA4335"/>
</g>
<defs>
<clipPath id="clip0_205_5334">
<rect width="22" height="22" fill="white" transform="translate(0.5)"/>
</clipPath>
</defs>
</svg>
