<svg width="32" height="32" viewBox="0 0 32 32" fill="none" xmlns="http://www.w3.org/2000/svg">
<circle cx="16" cy="16" r="16" fill="url(#paint0_linear_61_115)" fill-opacity="0.2"/>
<path d="M23.1553 7.00001H20.3267C20.9325 7.82265 21.2589 8.81781 21.2578 9.8395V21.343C21.2587 22.3647 20.9324 23.3598 20.3267 24.1825H23.1553C23.5288 24.1833 23.8988 24.1104 24.244 23.9679C24.5893 23.8255 24.903 23.6164 25.1673 23.3526C25.4316 23.0887 25.6413 22.7753 25.7843 22.4303C25.9273 22.0853 26.0009 21.7155 26.0007 21.342V9.83852C26.0006 9.46522 25.9269 9.0956 25.7837 8.75083C25.6406 8.40605 25.4309 8.09288 25.1666 7.82924C24.9024 7.56559 24.5887 7.35665 24.2436 7.21436C23.8984 7.07207 23.5286 6.99923 23.1553 7.00001Z" fill="url(#paint1_linear_61_115)"/>
<path d="M18.4601 7.83178C18.3952 7.76788 18.3284 7.70593 18.2576 7.64792C18.1868 7.58992 18.115 7.53584 18.0364 7.48471C17.999 7.45915 17.9606 7.43457 17.9213 7.41097C17.8433 7.36334 17.7629 7.3197 17.6804 7.28021C17.5969 7.23989 17.5123 7.2045 17.4248 7.17205C17.2028 7.09118 16.9716 7.03833 16.7366 7.01474C16.6884 7.01474 16.6382 7.00589 16.592 7.00393C16.5458 7.00196 16.4937 7.00393 16.4455 7.00393H9.56309C8.81172 7.00549 8.09159 7.3048 7.56047 7.83629C7.02935 8.36777 6.73054 9.08811 6.7295 9.83949V21.343C6.72862 21.8156 6.84661 22.2808 7.07264 22.6959C7.11567 22.7757 7.16293 22.8531 7.21422 22.9279C7.23978 22.9666 7.26633 23.0039 7.29386 23.04C7.34793 23.1128 7.40594 23.1826 7.4669 23.2504C7.52786 23.3182 7.59275 23.3812 7.66354 23.447C7.76475 23.5386 7.87217 23.623 7.98505 23.6997C8.02339 23.7253 8.06174 23.7499 8.10107 23.7735C8.20895 23.8386 8.32095 23.8968 8.43634 23.9475C8.55252 23.9978 8.67212 24.0399 8.79423 24.0733C9.04717 24.1454 9.30893 24.1818 9.57194 24.1815H16.4544C16.7174 24.182 16.9792 24.1456 17.2321 24.0733C17.355 24.0391 17.4752 23.9961 17.5919 23.9445C17.7073 23.8938 17.8193 23.8357 17.9272 23.7705C17.9665 23.7469 18.0049 23.7223 18.0423 23.6968C18.1379 23.6319 18.2295 23.5613 18.3166 23.4854C18.3667 23.4411 18.4149 23.3969 18.4631 23.3497C18.5913 23.2206 18.7072 23.0797 18.8092 22.9289C19.1263 22.4606 19.2952 21.9076 19.2939 21.342V9.83851C19.2951 9.27259 19.1262 8.71937 18.8092 8.25063C18.706 8.10054 18.5891 7.96032 18.4601 7.83178Z" fill="url(#paint2_linear_61_115)"/>
<defs>
<linearGradient id="paint0_linear_61_115" x1="-5.32717e-07" y1="3" x2="32" y2="32" gradientUnits="userSpaceOnUse">
<stop stop-color="#FEC6C6"/>
<stop offset="1" stop-color="#FDA0FF"/>
</linearGradient>
<linearGradient id="paint1_linear_61_115" x1="20.3267" y1="8.61086" x2="29.8113" y2="11.4493" gradientUnits="userSpaceOnUse">
<stop stop-color="#FEC6C6"/>
<stop offset="1" stop-color="#FDA0FF"/>
</linearGradient>
<linearGradient id="paint2_linear_61_115" x1="6.72949" y1="8.61353" x2="22.6279" y2="19.1516" gradientUnits="userSpaceOnUse">
<stop stop-color="#FEC6C6"/>
<stop offset="1" stop-color="#FDA0FF"/>
</linearGradient>
</defs>
</svg>
