<svg width="16" height="16" viewBox="0 0 16 16" fill="none" xmlns="http://www.w3.org/2000/svg">
<path d="M8 -0.00012207C6.41775 -0.00012207 4.87103 0.46907 3.55544 1.34812C2.23985 2.22717 1.21447 3.4766 0.608967 4.93841C0.00346625 6.40022 -0.15496 8.00875 0.153721 9.5606C0.462403 11.1124 1.22433 12.5379 2.34315 13.6567C3.46197 14.7756 4.88743 15.5375 6.43928 15.8462C7.99113 16.1548 9.59966 15.9964 11.0615 15.3909C12.5233 14.7854 13.7727 13.76 14.6518 12.4444C15.5308 11.1288 16 9.58213 16 7.99988C16 5.87815 15.1571 3.84331 13.6569 2.34302C12.1566 0.842733 10.1217 -0.00012207 8 -0.00012207V-0.00012207ZM5 8.58988V12.7499H3.88V5.16988H5V8.58988ZM4.42 4.29988C4.24494 4.27914 4.08357 4.19489 3.96648 4.06311C3.84938 3.93133 3.78471 3.76117 3.78471 3.58488C3.78471 3.40859 3.84938 3.23843 3.96648 3.10665C4.08357 2.97486 4.24494 2.89062 4.42 2.86988C4.61096 2.86988 4.79409 2.94573 4.92912 3.08076C5.06415 3.21579 5.14 3.39892 5.14 3.58988C5.14001 3.68396 5.12132 3.77711 5.08502 3.86391C5.04871 3.95071 4.99552 4.02943 4.92853 4.09549C4.86153 4.16155 4.78208 4.21364 4.69478 4.24873C4.60748 4.28382 4.51408 4.3012 4.42 4.29988ZM9.52 12.7499H6.57V5.16988H9.51C10.0268 5.1338 10.5455 5.20548 11.0331 5.38038C11.5208 5.55528 11.9668 5.82959 12.3428 6.18591C12.7189 6.54223 13.0168 6.9728 13.2177 7.45031C13.4187 7.92783 13.5182 8.44188 13.51 8.95988C13.5065 9.47363 13.3994 9.98139 13.195 10.4528C12.9907 10.9242 12.6934 11.3495 12.3209 11.7033C11.9484 12.0572 11.5084 12.3322 11.0271 12.512C10.5459 12.6919 10.0333 12.7728 9.52 12.7499Z" fill="#FDF5FF" fill-opacity="0.75"/>
</svg>
