<svg width="534" height="632" viewBox="0 0 534 632" fill="none" xmlns="http://www.w3.org/2000/svg">
<rect width="534" height="632" rx="24" fill="#DFC5E9" fill-opacity="0.5"/>
<path d="M244.778 284C239.409 284 235 288.409 235 293.778V338.222C235 343.591 239.409 348 244.778 348H289.222C294.591 348 299 343.591 299 338.222V293.778C299 288.409 294.591 284 289.222 284H244.778ZM244.778 289.333H289.222C291.708 289.333 293.667 291.292 293.667 293.778V338.222C293.667 338.512 293.308 338.63 293.1 338.429L272.003 318.017C270.619 316.678 268.809 316.01 267 316.01C265.191 316.01 263.384 316.678 262 318.017L240.9 338.429C240.692 338.63 240.333 338.512 240.333 338.222V293.778C240.333 291.292 242.292 289.333 244.778 289.333ZM278.556 296.444C276.111 296.444 273.94 297.457 272.562 299.007C271.185 300.557 270.556 302.519 270.556 304.444C270.556 306.37 271.185 308.332 272.562 309.882C273.94 311.432 276.111 312.444 278.556 312.444C281 312.444 283.171 311.432 284.549 309.882C285.926 308.332 286.556 306.37 286.556 304.444C286.556 302.519 285.926 300.557 284.549 299.007C283.171 297.457 281 296.444 278.556 296.444ZM278.556 301.778C279.667 301.778 280.162 302.098 280.562 302.549C280.963 302.999 281.222 303.704 281.222 304.444C281.222 305.185 280.963 305.89 280.562 306.34C280.162 306.79 279.667 307.111 278.556 307.111C277.444 307.111 276.949 306.79 276.549 306.34C276.148 305.89 275.889 305.185 275.889 304.444C275.889 303.704 276.148 302.999 276.549 302.549C276.949 302.098 277.444 301.778 278.556 301.778ZM267.003 321.312C267.465 321.312 267.925 321.492 268.295 321.851L289.371 342.241C289.525 342.39 289.437 342.667 289.222 342.667H244.778C244.563 342.667 244.475 342.39 244.629 342.241L265.708 321.851C266.079 321.492 266.542 321.312 267.003 321.312Z" fill="#665973"/>
</svg>
