<svg width="117" height="32" viewBox="0 0 117 32" fill="none" xmlns="http://www.w3.org/2000/svg">
<path d="M30.3646 9.06141C27.8633 3.63253 22.1216 0.000179943 16.0543 0.000179943H15.955C13.24 -0.012783 10.5675 0.674836 8.19523 1.99672C5.82297 3.3186 3.83098 5.23014 2.4114 7.54696C0.957842 9.89097 0.132365 12.5705 0.0146376 15.3269C-0.103089 18.0834 0.490909 20.8236 1.73931 23.2833C4.30298 28.5364 10.0955 32 15.9827 32C16.5911 32.0003 17.1989 31.9625 17.8027 31.8867C20.3361 31.6118 22.7649 30.7244 24.8796 29.3009C26.9944 27.8775 28.7317 25.9607 29.942 23.7157C31.1928 21.49 31.8849 18.9934 31.9585 16.4407C32.0321 13.888 31.4851 11.3556 30.3646 9.06141ZM22.1332 19.1908C21.8622 19.6956 21.4374 20.1006 20.9206 20.3469C19.2231 21.2093 16.5324 20.9411 14.0726 19.6533C11.5736 18.3446 9.75366 16.2128 9.54117 14.3585C9.47926 13.918 9.53174 13.469 9.69356 13.0547C9.85537 12.6404 10.1211 12.2748 10.465 11.9932C12.7746 10.2475 16.9689 11.4082 19.6757 13.54C21.9692 15.3435 22.8838 17.4637 22.1332 19.1908ZM22.3203 21.5954C23.6898 20.5781 24.3435 19.1908 24.2118 17.5932C24.0016 15.0637 21.8329 12.3747 18.6872 10.7377C18.2558 10.5141 17.8124 10.3141 17.3592 10.1389C18.1841 10.1771 19.0021 10.3074 19.7982 10.5273C21.373 10.9504 22.8133 11.7704 23.9818 12.9089C25.1503 14.0475 26.0079 15.4667 26.4729 17.0313C27.0067 18.6884 27.114 20.4535 26.785 22.1632C26.456 23.8728 25.7012 25.4717 24.5906 26.8116C24.1454 27.3308 23.6443 27.7992 23.0963 28.2081C21.6505 29.1792 19.8005 29.8127 17.5948 30.0948C15.4599 30.3392 13.2975 30.0983 11.2685 29.3901C9.23951 28.682 7.39621 27.5248 5.87582 26.0047C1.60535 21.7642 0.563715 14.6105 3.42763 9.35736C2.59155 13.4683 4.00504 17.8822 7.06527 20.6613C8.90134 22.2893 11.1993 23.303 13.6384 23.5608C16.67 23.9091 19.73 23.2196 22.3203 21.6047V21.5954ZM12.7538 8.94117C11.9278 9.20777 11.1283 9.55067 10.3657 9.96545C9.44042 10.3701 8.67869 11.0756 8.20391 11.9677C7.53412 13.2464 7.54336 14.7423 8.22931 16.2776C9.27095 18.6128 11.7399 20.77 14.4907 21.8405C12.7708 21.7538 11.0993 21.2405 9.62663 20.3469C7.46021 19.0359 5.8712 16.74 5.26839 14.0533C4.65173 11.3019 5.12058 8.47181 6.56639 6.28223C8.23162 3.42444 11.569 1.83138 15.9665 1.80133H15.9965C17.8918 1.80352 19.7672 2.18649 21.5119 2.92755C23.2566 3.66861 24.8349 4.75268 26.1535 6.11554C27.472 7.4784 28.5038 9.09233 29.1879 10.8617C29.872 12.6311 30.1944 14.5199 30.136 16.4163C30.08 18.5765 29.5267 20.6947 28.5192 22.6058C29.3969 18.4579 27.9164 13.9215 24.743 11.1631C22.6344 9.29724 19.7566 8.30072 16.8026 8.30072C15.4277 8.29927 14.0613 8.51543 12.7538 8.94117Z" fill="#FDF5FF"/>
<path d="M45.8576 21.1561L40.8157 7.67871H38.2104L44.6935 24.3214H47.0193L53.5624 7.67871H50.9272L45.8576 21.1561Z" fill="#FDF5FF"/>
<path d="M68.9143 9.77586C68.2474 9.01678 67.4313 8.40362 66.5169 7.97471C65.5097 7.51586 64.413 7.28759 63.3066 7.30651C61.8694 7.28631 60.4559 7.67433 59.2301 8.42558C58.0169 9.16999 57.0242 10.2252 56.3546 11.4822C55.6318 12.854 55.2686 14.387 55.2991 15.9377C55.2738 17.5061 55.6473 19.0553 56.3847 20.4394C57.0765 21.7289 58.1035 22.8073 59.3571 23.5608C60.6262 24.3214 62.0816 24.7137 63.5606 24.6937C64.6267 24.7069 65.6851 24.5114 66.6763 24.118C67.574 23.7646 68.3992 23.2489 69.1106 22.5966C69.754 22.0207 70.2714 21.3177 70.6303 20.5319L68.6464 19.4775C68.1371 20.3379 67.4495 21.079 66.6301 21.6509C65.7228 22.2546 64.6494 22.5586 63.5606 22.5203C62.5189 22.5243 61.4956 22.2454 60.5997 21.7134C59.6761 21.1722 58.9236 20.3812 58.4287 19.4313C57.9927 18.5924 57.7668 17.6601 57.7704 16.7146H70.8359C70.8775 16.4463 70.9098 16.1828 70.9306 15.9215C70.9514 15.6602 70.9606 15.4313 70.9606 15.2279C70.9592 13.224 70.2322 11.2887 68.9143 9.78048V9.77586ZM60.4311 10.2868C61.2931 9.75466 62.2869 9.47511 63.2996 9.47991C64.2876 9.46684 65.258 9.74244 66.092 10.273C66.914 10.7956 67.5745 11.5369 67.9997 12.414C68.3196 13.0765 68.4779 13.8055 68.4616 14.5412H57.7935C57.8745 13.6761 58.1548 12.8417 58.6125 12.1035C59.0702 11.3652 59.6927 10.7434 60.4311 10.2868Z" fill="#FDF5FF"/>
<path d="M78.8526 8.14572C78.2642 8.47201 77.7579 8.92827 77.3721 9.47982V7.67867H75.0625V24.326H77.3721V14.0763C77.3721 12.7091 77.734 11.6532 78.4576 10.9087C79.1813 10.1642 80.1429 9.79119 81.3423 9.78965H82.7997V7.46133H81.7604C80.7479 7.42952 79.7449 7.66559 78.8526 8.14572Z" fill="#FDF5FF"/>
<path d="M92.9483 15.1931L90.1883 14.3862C89.8454 14.2829 89.5091 14.1586 89.1814 14.0139C88.7928 13.8447 88.4477 13.5893 88.1721 13.2671C87.8673 12.8916 87.7126 12.4162 87.7379 11.933C87.7317 11.5887 87.804 11.2476 87.9493 10.9355C88.0946 10.6234 88.309 10.3486 88.5762 10.1318C89.1336 9.65555 89.8781 9.4174 90.8096 9.4174C91.7334 9.41024 92.6371 9.68706 93.3987 10.2105C94.1883 10.7554 94.8068 11.514 95.1817 12.3977L97.1657 11.4729C96.7215 10.2079 95.8637 9.13007 94.7314 8.41393C93.5896 7.6805 92.2586 7.29715 90.902 7.31105C89.9295 7.2991 88.9662 7.50034 88.0797 7.90064C87.2672 8.26554 86.5699 8.84603 86.0634 9.57925C85.5599 10.3302 85.3002 11.2184 85.3197 12.1226C85.3096 13.1285 85.6744 14.1021 86.3428 14.8532C87.0249 15.6393 88.1313 16.2497 89.6618 16.6844L92.0499 17.3781C92.4446 17.4823 92.8306 17.6168 93.2047 17.7804C93.639 17.9642 94.0318 18.234 94.3595 18.5734C94.5305 18.7598 94.6625 18.9786 94.7477 19.2169C94.833 19.4551 94.8699 19.708 94.8561 19.9607C94.8613 20.3398 94.7701 20.7139 94.5911 21.048C94.4121 21.3821 94.1512 21.6651 93.8329 21.8705C93.0941 22.3752 92.214 22.6311 91.3201 22.6011C90.2928 22.6064 89.2905 22.2841 88.4584 21.6809C87.5877 21.0673 86.8971 20.2314 86.4583 19.2601L84.5044 20.185C85.0066 21.5281 85.918 22.6791 87.1096 23.4751C88.1834 24.1479 89.4023 24.5539 90.6646 24.6593C91.927 24.7647 93.1962 24.5664 94.3664 24.0809C95.2052 23.7185 95.9288 23.1332 96.4589 22.3884C97.012 21.5827 97.2763 20.6133 97.2087 19.638C97.1412 18.6627 96.7459 17.739 96.0871 17.0174C95.3388 16.1942 94.2925 15.5862 92.9483 15.1931Z" fill="#FDF5FF"/>
<path d="M115.774 12.3214C115.425 11.3886 114.91 10.5269 114.254 9.77806C113.585 9.01821 112.767 8.405 111.85 7.97691C110.843 7.51806 109.746 7.28979 108.639 7.3087C107.202 7.2885 105.789 7.67652 104.563 8.42777C103.352 9.17306 102.362 10.2272 101.692 11.4821C100.971 12.8545 100.609 14.3872 100.639 15.9376C100.612 17.5062 100.986 19.0557 101.724 20.4393C102.413 21.7273 103.436 22.8056 104.685 23.5606C105.954 24.3213 107.41 24.7136 108.889 24.6936C109.959 24.7083 111.021 24.5127 112.016 24.1179C112.914 23.7639 113.739 23.2482 114.45 22.5965C115.094 22.0205 115.611 21.3176 115.97 20.5318L113.986 19.4774C113.477 20.3377 112.789 21.0788 111.97 21.6508C111.063 22.2545 109.989 22.5585 108.9 22.5202C108.138 22.5251 107.382 22.3782 106.677 22.0881C105.971 21.798 105.331 21.3704 104.792 20.8301C104.253 20.2899 103.827 19.6479 103.538 18.9413C103.25 18.2348 103.104 17.4778 103.11 16.7144H116.173C116.215 16.4462 116.247 16.1826 116.266 15.9214C116.284 15.6601 116.298 15.4312 116.298 15.2277C116.3 14.2352 116.122 13.2506 115.774 12.3214ZM105.78 10.2867C106.639 9.75621 107.63 9.47672 108.639 9.47979C109.627 9.46673 110.598 9.74233 111.432 10.2729C112.254 10.7955 112.914 11.5368 113.339 12.4139C113.659 13.0764 113.818 13.8054 113.801 14.541H103.131C103.214 13.6752 103.497 12.8405 103.956 12.1024C104.416 11.3643 105.04 10.7428 105.78 10.2867Z" fill="#FDF5FF"/>
</svg>
