<svg width="48" height="48" viewBox="0 0 48 48" fill="none" xmlns="http://www.w3.org/2000/svg">
<circle cx="24" cy="24" r="24" fill="url(#paint0_linear_20_1179)" fill-opacity="0.2"/>
<path d="M24.0081 38C21.3413 38.0034 18.7296 37.2407 16.4837 35.8026C16.0392 35.5804 15.6328 35.2893 15.2793 34.9402C13.6327 33.6306 12.3029 31.9663 11.3888 30.0714C10.4747 28.1765 10 26.0997 10 23.9959C10 21.892 10.4747 19.8152 11.3888 17.9203C12.3029 16.0254 13.6327 14.3612 15.2793 13.0516C15.632 12.7015 16.0387 12.4104 16.4837 12.1891C18.3165 11.0226 20.3957 10.2987 22.5567 10.0746C24.7177 9.8506 26.9012 10.1326 28.9343 10.8983C30.9675 11.664 32.7946 12.8924 34.2709 14.4863C35.7473 16.0803 36.8325 17.9959 37.4405 20.0817C38.0486 22.1675 38.1628 24.3662 37.7743 26.5038C37.3857 28.6414 36.505 30.6592 35.2019 32.3976C33.8987 34.136 32.2088 35.5472 30.266 36.5196C28.3232 37.4919 26.1807 37.9988 24.0081 38ZM24.0081 13.7314C23.6579 13.9814 23.1223 14.8548 22.6458 16.3312C23.4904 18.4228 24.0081 21.0912 24.0081 23.9918C24.0081 26.8923 23.4904 29.5744 22.6348 31.6661C23.1154 33.1424 23.651 34.0173 24.0081 34.2658C24.7689 33.7165 26.4114 30.2323 26.4114 23.9986C26.4114 17.765 24.7621 14.2739 24.0081 13.7314ZM28.7694 14.8631C29.6744 17.4724 30.1057 20.7905 30.1057 23.9986C30.1057 27.2068 29.6744 30.5303 28.7694 33.1342C30.439 32.2635 31.8379 30.9517 32.8141 29.3415C33.7904 27.7314 34.3066 25.8844 34.3066 24.0014C34.3066 22.1184 33.7904 20.2714 32.8141 18.6612C31.8379 17.051 30.439 15.7393 28.7694 14.8686V14.8631Z" fill="url(#paint1_linear_20_1179)"/>
<defs>
<linearGradient id="paint0_linear_20_1179" x1="-7.99075e-07" y1="4.5" x2="48" y2="48" gradientUnits="userSpaceOnUse">
<stop stop-color="#FEC6C6"/>
<stop offset="1" stop-color="#FDA0FF"/>
</linearGradient>
<linearGradient id="paint1_linear_20_1179" x1="10" y1="35.375" x2="38" y2="10" gradientUnits="userSpaceOnUse">
<stop stop-color="#FEC6C6"/>
<stop offset="1" stop-color="#FDA0FF"/>
</linearGradient>
</defs>
</svg>
