<svg width="24" height="24" viewBox="0 0 24 24" fill="none" xmlns="http://www.w3.org/2000/svg">
<g clip-path="url(#clip0_205_5341)">
<path d="M11.4902 9.2251H13.9952C17.1902 9.2251 18.6452 11.1601 18.5852 13.4401C18.591 14.0197 18.4764 14.5943 18.2485 15.1273C18.0206 15.6603 17.6844 16.1401 17.2614 16.5364C16.8383 16.9326 16.3375 17.2367 15.7908 17.4293C15.244 17.6219 14.6633 17.6988 14.0852 17.6551H11.4902V9.2251Z" fill="#A6CE39"/>
<path fill-rule="evenodd" clip-rule="evenodd" d="M5.33316 2.02236C7.30655 0.703788 9.62663 0 12 0C15.1826 0 18.2348 1.26428 20.4853 3.51472C22.7357 5.76515 24 8.8174 24 12C24 14.3734 23.2962 16.6934 21.9776 18.6668C20.6591 20.6402 18.7849 22.1783 16.5922 23.0865C14.3995 23.9948 11.9867 24.2324 9.65892 23.7694C7.33115 23.3064 5.19295 22.1635 3.51472 20.4853C1.83649 18.807 0.693604 16.6689 0.230582 14.3411C-0.232441 12.0133 0.00519943 9.60051 0.913451 7.4078C1.8217 5.21508 3.35977 3.34094 5.33316 2.02236ZM7.5 19.125V7.755H5.82V19.125H7.5ZM5.94971 6.09485C6.12535 6.29252 6.36741 6.41889 6.63 6.45C6.77112 6.45199 6.91122 6.42591 7.04217 6.37328C7.17312 6.32065 7.2923 6.24251 7.39279 6.14342C7.49328 6.04433 7.57307 5.92625 7.62752 5.79605C7.68198 5.66585 7.71002 5.52613 7.71 5.385C7.71 5.09857 7.59622 4.82386 7.39368 4.62132C7.19114 4.41878 6.91644 4.305 6.63 4.305C6.36741 4.33611 6.12535 4.46248 5.94971 4.66015C5.77408 4.85782 5.67706 5.11307 5.67706 5.3775C5.67706 5.64193 5.77408 5.89717 5.94971 6.09485ZM9.855 19.125H14.28C15.0499 19.1593 15.8188 19.038 16.5407 18.7682C17.2626 18.4985 17.9226 18.0859 18.4814 17.5552C19.0401 17.0244 19.4861 16.3864 19.7926 15.6794C20.099 14.9723 20.2597 14.2106 20.265 13.44C20.2773 12.663 20.128 11.8919 19.8266 11.1757C19.5252 10.4594 19.0783 9.81353 18.5142 9.27905C17.9501 8.74457 17.2811 8.33311 16.5497 8.07076C15.8182 7.8084 15.0402 7.70088 14.265 7.755H9.855V19.125Z" fill="#A6CE39"/>
</g>
<defs>
<clipPath id="clip0_205_5341">
<rect width="24" height="24" fill="white"/>
</clipPath>
</defs>
</svg>
