<svg width="32" height="32" viewBox="0 0 32 32" fill="none" xmlns="http://www.w3.org/2000/svg">
<circle cx="16" cy="16" r="16" fill="url(#paint0_linear_61_502)" fill-opacity="0.2"/>
<path d="M15.6502 13.9763C17.8528 13.9763 19.6384 12.1907 19.6384 9.98814C19.6384 7.78555 17.8528 6 15.6502 6C13.4477 6 11.6621 7.78555 11.6621 9.98814C11.6621 12.1907 13.4477 13.9763 15.6502 13.9763Z" fill="url(#paint1_linear_61_502)"/>
<path d="M18.3399 15.8511H12.9602C11.3793 15.8513 9.86334 16.4795 8.74563 17.5974C7.62791 18.7153 7 20.2314 7 21.8123V22.004C7.00027 22.8596 7.34026 23.68 7.94523 24.285C8.5502 24.89 9.37064 25.2299 10.2262 25.2302H21.0738C21.4975 25.2302 21.917 25.1468 22.3085 24.9846C22.6999 24.8225 23.0555 24.5849 23.3551 24.2853C23.6547 23.9857 23.8923 23.6301 24.0545 23.2386C24.2166 22.8472 24.3 22.4277 24.3 22.004V21.8123C24.3 20.2314 23.6721 18.7153 22.5544 17.5974C21.4367 16.4795 19.9207 15.8513 18.3399 15.8511Z" fill="url(#paint2_linear_61_502)"/>
<defs>
<linearGradient id="paint0_linear_61_502" x1="-5.32717e-07" y1="3" x2="32" y2="32" gradientUnits="userSpaceOnUse">
<stop stop-color="#FEC6C6"/>
<stop offset="1" stop-color="#FDA0FF"/>
</linearGradient>
<linearGradient id="paint1_linear_61_502" x1="11.6621" y1="6.74778" x2="19.6384" y2="13.9763" gradientUnits="userSpaceOnUse">
<stop stop-color="#FEC6C6"/>
<stop offset="1" stop-color="#FDA0FF"/>
</linearGradient>
<linearGradient id="paint2_linear_61_502" x1="7" y1="16.7304" x2="15.3043" y2="30.6118" gradientUnits="userSpaceOnUse">
<stop stop-color="#FEC6C6"/>
<stop offset="1" stop-color="#FDA0FF"/>
</linearGradient>
</defs>
</svg>
