<svg width="129" height="128" viewBox="0 0 129 128" fill="none" xmlns="http://www.w3.org/2000/svg">
<circle cx="64.5" cy="64" r="63.5" fill="#393B50" stroke="#2C2830"/>
<path d="M78.9444 80C78.9444 77.519 78.9444 76.2785 78.6382 75.2691C77.9488 72.9964 76.1703 71.2178 73.8976 70.5284C72.8882 70.2222 71.6477 70.2222 69.1667 70.2222H60.2778C57.7968 70.2222 56.5563 70.2222 55.5469 70.5284C53.2741 71.2178 51.4956 72.9964 50.8062 75.2691C50.5 76.2785 50.5 77.519 50.5 80M72.7222 56C72.7222 60.4183 69.1405 64 64.7222 64C60.3039 64 56.7222 60.4183 56.7222 56C56.7222 51.5817 60.3039 48 64.7222 48C69.1405 48 72.7222 51.5817 72.7222 56Z" stroke="#848383" stroke-width="2" stroke-linecap="round" stroke-linejoin="round"/>
</svg>
