<svg width="65" height="64" viewBox="0 0 65 64" fill="none" xmlns="http://www.w3.org/2000/svg">
<path d="M10.2434 0C4.86645 0 0.450195 4.40929 0.450195 9.77778V54.2222C0.450195 59.5907 4.86645 64 10.2434 64H54.7581C60.135 64 64.5513 59.5907 64.5513 54.2222V9.77778C64.5513 4.40929 60.135 0 54.7581 0H10.2434ZM10.2434 5.33333H54.7581C57.2477 5.33333 59.2095 7.29204 59.2095 9.77778V54.2222C59.2095 54.458 59.1741 54.6847 59.14 54.9097L37.5121 34.0174C36.1258 32.6781 34.3125 32.0104 32.5007 32.0104C30.689 32.0104 28.8792 32.6781 27.4928 34.0174L5.86151 54.9097C5.82744 54.6847 5.79195 54.458 5.79195 54.2222V9.77778C5.79195 7.29204 7.75376 5.33333 10.2434 5.33333ZM44.0746 12.4444C41.6263 12.4444 39.4518 13.4571 38.072 15.0069C36.6922 16.5568 36.0619 18.5185 36.0619 20.4444C36.0619 22.3704 36.6922 24.3321 38.072 25.8819C39.4518 27.4318 41.6263 28.4444 44.0746 28.4444C46.5229 28.4444 48.6973 27.4318 50.0771 25.8819C51.4569 24.3321 52.0872 22.3704 52.0872 20.4444C52.0872 18.5185 51.4569 16.5568 50.0771 15.0069C48.6973 13.4571 46.5229 12.4444 44.0746 12.4444ZM44.0746 17.7778C45.1874 17.7778 45.6839 18.0984 46.0847 18.5486C46.4855 18.9988 46.7454 19.7037 46.7454 20.4444C46.7454 21.1852 46.4855 21.8901 46.0847 22.3403C45.6839 22.7905 45.1874 23.1111 44.0746 23.1111C42.9617 23.1111 42.4652 22.7905 42.0644 22.3403C41.6637 21.8901 41.4037 21.1852 41.4037 20.4444C41.4037 19.7037 41.6637 18.9988 42.0644 18.5486C42.4652 18.0984 42.9617 17.7778 44.0746 17.7778ZM32.5042 37.3125C32.9664 37.3125 33.4268 37.4922 33.7979 37.8507L55.2936 58.6146C55.1164 58.6353 54.9417 58.6667 54.7581 58.6667H10.2434C10.0598 58.6667 9.88512 58.6353 9.70785 58.6146L31.207 37.8507C31.5781 37.4922 32.042 37.3125 32.5042 37.3125Z" fill="#7D718D" fill-opacity="0.5"/>
</svg>
