<svg width="61" height="101" viewBox="0 0 61 101" fill="none" xmlns="http://www.w3.org/2000/svg">
<g opacity="0.3">
<path d="M19.9052 67V67.8H20.7052H35.4306H36.2306V67V65.8574C36.2598 62.7975 36.6219 60.2722 37.2938 58.2607C37.9947 56.2212 39.0553 54.4564 40.4751 52.9565C41.9495 51.4302 43.851 49.9437 46.1927 48.5017C48.9579 46.8527 51.3578 44.9728 53.3863 42.8593C55.4316 40.7284 57.0055 38.2907 58.1049 35.5511C59.2408 32.7943 59.8 29.6907 59.8 26.2537C59.8 21.1517 58.5571 16.7008 56.0411 12.9358C53.5638 9.15521 50.0971 6.25385 45.6699 4.22759C41.2719 2.20122 36.2015 1.2 30.4779 1.2C25.2196 1.2 20.3915 2.15936 16.0051 4.09004L16.0032 4.09087C11.6254 6.03117 8.08906 8.94838 5.40963 12.8349L5.40962 12.8349L5.40721 12.8385C2.73816 16.7544 1.35081 21.5868 1.20028 27.291L1.17861 28.1121H2H17.7424H18.5009L18.5413 27.3547C18.6831 24.6968 19.3316 22.5692 20.4391 20.9254C21.6031 19.2122 23.0438 17.9589 24.7629 17.1426L24.7629 17.1426L24.7677 17.1403C26.546 16.2813 28.417 15.8529 30.3894 15.8529C32.5456 15.8529 34.4669 16.2988 36.17 17.1754L36.1746 17.1777C37.9081 18.0558 39.2727 19.2828 40.2842 20.8639C41.281 22.4222 41.7943 24.2815 41.7943 26.4742C41.7943 28.4211 41.4048 30.1642 40.6397 31.7185C39.8599 33.2731 38.7845 34.6964 37.4048 35.9882C36.0316 37.272 34.4676 38.4605 32.7102 39.5524C30.0372 41.1998 27.7556 43.0204 25.8735 45.0179C23.9444 47.0356 22.4764 49.6782 21.4464 52.9104L21.4464 52.9104L21.4444 52.917C20.4385 56.1694 19.9349 60.4913 19.9052 65.849V65.8535V67Z" stroke="#FDF5FF" stroke-width="1.6"/>
<path d="M41.2866 83.7961C39.4107 79.7244 35.1044 77.0001 30.5539 77.0001H30.4794C28.4432 76.9904 26.4388 77.5061 24.6596 78.4975C22.8804 79.4889 21.3864 80.9226 20.3217 82.6602C19.2316 84.4182 18.6125 86.4279 18.5242 88.4952C18.4359 90.5625 18.8814 92.6177 19.8177 94.4625C21.7404 98.4023 26.0848 101 30.5002 101C30.9565 101 31.4124 100.972 31.8652 100.915C33.7653 100.709 35.5868 100.043 37.1729 98.9757C38.7589 97.9081 40.0619 96.4705 40.9697 94.7867C41.9078 93.1175 42.4268 91.2451 42.482 89.3305C42.5373 87.416 42.127 85.5167 41.2866 83.7961ZM35.1131 91.3931C34.9099 91.7717 34.5913 92.0754 34.2036 92.2602C32.9305 92.907 30.9125 92.7058 29.0677 91.7399C27.1934 90.7584 25.8284 89.1596 25.6691 87.7689C25.6226 87.4385 25.662 87.1017 25.7833 86.791C25.9047 86.4803 26.104 86.2061 26.3619 85.9949C28.0942 84.6856 31.2398 85.5562 33.27 87.155C34.9901 88.5076 35.676 90.0977 35.1131 91.3931ZM35.2534 93.1966C36.2806 92.4336 36.7708 91.3931 36.672 90.1949C36.5144 88.2978 34.8879 86.281 32.5286 85.0533C32.205 84.8855 31.8725 84.7356 31.5326 84.6041C32.1512 84.6328 32.7648 84.7305 33.3618 84.8955C34.5429 85.2128 35.6232 85.8278 36.4995 86.6817C37.3759 87.5356 38.0191 88.6 38.3679 89.7735C38.7682 91.0163 38.8487 92.3401 38.6019 93.6224C38.3551 94.9046 37.7891 96.1038 36.9561 97.1087C36.6223 97.4981 36.2464 97.8494 35.8354 98.1561C34.751 98.8844 33.3635 99.3595 31.7093 99.5711C30.1081 99.7544 28.4863 99.5737 26.9646 99.0426C25.4428 98.5115 24.0603 97.6436 22.92 96.5035C19.7172 93.3232 18.936 87.9579 21.0839 84.018C20.4568 87.1012 21.517 90.4116 23.8121 92.496C25.1892 93.717 26.9126 94.4772 28.742 94.6706C31.0157 94.9318 33.3107 94.4147 35.2534 93.2035V93.1966ZM28.0786 83.7059C27.459 83.9058 26.8594 84.163 26.2875 84.4741C25.5935 84.7776 25.0222 85.3067 24.6661 85.9758C24.1638 86.9348 24.1707 88.0567 24.6852 89.2082C25.4664 90.9596 27.3181 92.5775 29.3812 93.3804C28.0912 93.3153 26.8377 92.9304 25.7332 92.2602C24.1083 91.2769 22.9166 89.555 22.4645 87.54C22.002 85.4764 22.3536 83.3539 23.438 81.7117C24.6869 79.5683 27.1899 78.3735 30.4881 78.351H30.5106C31.932 78.3526 33.3386 78.6399 34.6471 79.1957C35.9556 79.7515 37.1394 80.5645 38.1283 81.5867C39.1172 82.6088 39.8911 83.8192 40.4041 85.1463C40.9172 86.4733 41.159 87.8899 41.1152 89.3122C41.0732 90.9324 40.6582 92.521 39.9026 93.9544C40.5609 90.8434 39.4505 87.4411 37.0705 85.3723C35.4889 83.9729 33.3306 83.2255 31.1151 83.2255C30.084 83.2245 29.0591 83.3866 28.0786 83.7059Z" fill="#FDF5FF"/>
</g>
</svg>
