<svg width="25" height="24" viewBox="0 0 25 24" fill="none" xmlns="http://www.w3.org/2000/svg">
<path d="M9.3256 0C4.7147 0 0.951172 3.77502 0.951172 8.4C0.951172 13.025 4.7147 16.8 9.3256 16.8C11.4168 16.8 13.3274 16.0176 14.798 14.7375L15.3073 15.2484V16.8L22.4854 24L24.8781 21.6L17.7 14.4H16.1532L15.6438 13.8891C16.92 12.414 17.7 10.4976 17.7 8.4C17.7 3.77502 13.9365 0 9.3256 0ZM9.3256 2.4C12.6434 2.4 15.3073 5.07208 15.3073 8.4C15.3073 11.7279 12.6434 14.4 9.3256 14.4C6.00781 14.4 3.34387 11.7279 3.34387 8.4C3.34387 5.07208 6.00781 2.4 9.3256 2.4Z" fill="#FDF5FF"/>
</svg>
