<svg width="32" height="32" viewBox="0 0 32 32" fill="none" xmlns="http://www.w3.org/2000/svg">
<circle cx="16" cy="16" r="16" fill="url(#paint0_linear_61_109)" fill-opacity="0.2"/>
<path d="M16.0011 27C13.8254 27.0002 11.6986 26.3552 9.8895 25.1467C8.08042 23.9381 6.67036 22.2202 5.83763 20.2102C5.00491 18.2003 4.78692 15.9885 5.21124 13.8547C5.63556 11.7208 6.68312 9.76068 8.22146 8.2222C9.75979 6.68372 11.7198 5.63597 13.8536 5.21144C15.9874 4.78692 18.1992 5.0047 20.2093 5.83723C22.2193 6.66976 23.9374 8.07966 25.1461 9.88862C26.3548 11.6976 27 13.8244 27 16C26.9967 18.9162 25.8368 21.712 23.7749 23.7741C21.7129 25.8363 18.9172 26.9964 16.0011 27ZM15.9348 24.0114V17.4522H14.1563C14.3668 21.2816 15.3791 23.5031 15.9348 24.0114ZM15.9348 14.5488V7.98862C15.3791 8.49795 14.3668 10.7184 14.1563 14.5488H15.9348ZM12.2621 23.1779C11.6876 21.5226 11.3561 19.4948 11.2498 17.4522H8.03703C8.26022 18.6648 8.75669 19.8106 9.48876 20.8027C10.2208 21.7948 11.1693 22.6071 12.2621 23.1779ZM8.03913 14.5488H11.2477C11.3529 12.5021 11.6855 10.4774 12.26 8.82312C11.1676 9.39422 10.2195 10.2066 9.48784 11.1987C8.75614 12.1908 8.25999 13.3365 8.03703 14.5488H8.03913Z" fill="url(#paint1_linear_61_109)"/>
<defs>
<linearGradient id="paint0_linear_61_109" x1="-5.32717e-07" y1="3" x2="32" y2="32" gradientUnits="userSpaceOnUse">
<stop stop-color="#FEC6C6"/>
<stop offset="1" stop-color="#FDA0FF"/>
</linearGradient>
<linearGradient id="paint1_linear_61_109" x1="5" y1="24.9375" x2="27" y2="5" gradientUnits="userSpaceOnUse">
<stop stop-color="#FEC6C6"/>
<stop offset="1" stop-color="#FDA0FF"/>
</linearGradient>
</defs>
</svg>
