<svg width="32" height="32" viewBox="0 0 32 32" fill="none" xmlns="http://www.w3.org/2000/svg">
<path d="M16.0093 32C12.9615 32.0039 9.97667 31.1322 7.40992 29.4887C6.902 29.2348 6.43744 28.9021 6.03346 28.503C4.15166 27.0064 2.63183 25.1044 1.58718 22.9388C0.542534 20.7731 0 18.3997 0 15.9953C0 13.5909 0.542534 11.2174 1.58718 9.0518C2.63183 6.88618 4.15166 4.98419 6.03346 3.48754C6.43661 3.08748 6.90133 2.75469 7.40992 2.50186C9.50461 1.16869 11.8808 0.341349 14.3505 0.0853024C16.8202 -0.170746 19.3156 0.151533 21.6393 1.02663C23.9629 1.90174 26.0509 3.30564 27.7382 5.12725C29.4255 6.94886 30.6657 9.13818 31.3606 11.5219C32.0555 13.9057 32.1861 16.4185 31.742 18.8615C31.298 21.3044 30.2915 23.6105 28.8021 25.5973C27.3128 27.584 25.3815 29.1968 23.1611 30.3081C20.9408 31.4194 18.4922 31.9986 16.0093 32ZM16.0093 4.26447C15.609 4.55013 14.9969 5.54836 14.4523 7.23563C15.4176 9.62605 16.0093 12.6757 16.0093 15.9906C16.0093 19.3055 15.4176 22.3708 14.4398 24.7612C14.9891 26.4485 15.6012 27.4483 16.0093 27.7324C16.8788 27.1046 18.7559 23.1226 18.7559 15.9984C18.7559 8.87424 16.8709 4.88444 16.0093 4.26447ZM21.4508 5.55778C22.4851 8.53992 22.9779 12.332 22.9779 15.9984C22.9779 19.6649 22.4851 23.4632 21.4508 26.4391C23.3588 25.444 24.9576 23.9448 26.0733 22.1046C27.189 20.2644 27.7789 18.1536 27.7789 16.0016C27.7789 13.8495 27.189 11.7387 26.0733 9.89851C24.9576 8.05831 23.3588 6.55917 21.4508 5.56406V5.55778Z" fill="#CCCCCC"/>
</svg>
