<svg width="16" height="16" viewBox="0 0 16 16" fill="none" xmlns="http://www.w3.org/2000/svg">
<path d="M8 -0.00012207C6.41769 -0.000122043 4.87091 0.469107 3.55529 1.34822C2.23966 2.22734 1.21428 3.47686 0.608826 4.93875C0.00336851 6.40065 -0.154972 8.00925 0.153829 9.56114C0.462631 11.113 1.2247 12.5385 2.34367 13.6573C3.46264 14.776 4.88824 15.5378 6.44018 15.8463C7.99213 16.1549 9.60071 15.9962 11.0625 15.3905C12.5243 14.7848 13.7736 13.7592 14.6525 12.4434C15.5313 11.1276 16.0003 9.58071 16 7.9984C15.9996 5.87693 15.1566 3.84247 13.6563 2.3425C12.1561 0.84253 10.1215 -0.000122106 8 -0.00012207V-0.00012207ZM13.1794 5.34009C13.1817 5.39855 13.1646 5.45611 13.1307 5.50384C12.898 5.82997 12.6186 6.12023 12.3017 6.36536C12.2545 6.40076 12.1763 6.43764 12.1763 6.50403C12.1763 8.21526 11.7337 9.92354 10.4931 11.1612C8.89987 12.7382 6.51743 13.1675 4.40347 12.5833C3.99388 12.4706 3.59807 12.3128 3.22331 12.1127C3.09792 12.0449 2.97548 11.9755 2.85599 11.8959C2.82501 11.8723 2.80288 11.8487 2.82943 11.8324C2.85599 11.8162 2.87516 11.8192 2.96958 11.8324C3.56552 11.8854 4.16587 11.8089 4.72949 11.6082C5.03633 11.5005 5.69722 11.2837 5.88752 10.9931C5.88752 10.9931 5.89637 10.9931 5.90227 10.9798C5.82409 10.9621 5.74738 10.9621 5.67066 10.9488C5.09681 10.7836 4.32971 10.4959 3.97419 9.52818C3.95206 9.47065 3.97419 9.44114 4.03319 9.45295C4.30168 9.48984 4.57445 9.48136 4.84013 9.42787C4.74875 9.40986 4.65968 9.38165 4.57459 9.34378C4.21546 9.19874 3.90134 8.96084 3.66441 8.65444C3.42749 8.34804 3.27627 7.98417 3.22626 7.6001C3.21349 7.51913 3.20855 7.43713 3.21151 7.35522C3.21151 7.29916 3.24101 7.28146 3.29117 7.31243C3.5476 7.44292 3.82741 7.52115 4.11433 7.54257C4.02139 7.47028 3.93583 7.39505 3.85175 7.31243C3.22479 6.72235 2.98138 5.50827 3.48295 4.75592C3.52425 4.69543 3.5508 4.69543 3.60096 4.75592C4.74867 6.06442 6.16338 6.67367 7.86871 6.92741C7.91297 6.92741 7.91739 6.92741 7.91149 6.87725C7.86132 6.58357 7.86883 6.28294 7.93362 5.99213C8.01026 5.68317 8.15434 5.39501 8.35553 5.14832C8.54893 4.90973 8.78884 4.71299 9.06067 4.57004C9.33263 4.42832 9.63098 4.34444 9.93694 4.32368C10.2515 4.30219 10.5668 4.35264 10.8589 4.4712C11.0783 4.56065 11.2815 4.68521 11.4608 4.84C11.5001 4.87391 11.5366 4.9109 11.57 4.95064C11.5808 4.96191 11.5945 4.96995 11.6096 4.97385C11.6247 4.97776 11.6406 4.97739 11.6555 4.97277C12.0873 4.86673 12.504 4.70716 12.8962 4.49776C12.9049 4.49335 12.9145 4.49105 12.9242 4.49105C12.934 4.49105 12.9436 4.49335 12.9522 4.49776C12.9699 4.51103 12.964 4.53464 12.9522 4.55234C12.8778 4.78363 12.7596 4.99847 12.6041 5.1852C12.5053 5.30912 12.2574 5.61448 12.0893 5.64251C12.4494 5.58877 12.8014 5.48964 13.1366 5.34747C13.1779 5.32829 13.1794 5.31944 13.1794 5.34747V5.34009Z" fill="#FDF5FF" fill-opacity="0.75"/>
</svg>
