<svg width="29" height="32" viewBox="0 0 29 32" fill="none" xmlns="http://www.w3.org/2000/svg">
<path d="M14.4905 13.2729C18.0699 13.2729 20.9717 10.3016 20.9717 6.63644C20.9717 2.97123 18.0699 0 14.4905 0C10.911 0 8.00928 2.97123 8.00928 6.63644C8.00928 10.3016 10.911 13.2729 14.4905 13.2729Z" fill="#CCCCCC"/>
<path d="M18.8618 16.3926H10.1191C7.55004 16.393 5.08638 17.4383 3.26996 19.2986C1.45353 21.1588 0.433105 23.6817 0.433105 26.3123L0.433105 26.6314C0.433547 28.055 0.98607 29.4203 1.96922 30.427C2.95237 31.4337 4.28568 31.9994 5.67606 31.9999H23.3048C23.9933 31.9999 24.6751 31.861 25.3112 31.5912C25.9473 31.3214 26.5253 30.926 27.0121 30.4275C27.499 29.929 27.8852 29.3372 28.1486 28.6858C28.4121 28.0345 28.5477 27.3364 28.5477 26.6314V26.3123C28.5477 23.6817 27.5273 21.1588 25.7109 19.2986C23.8945 17.4383 21.4308 16.393 18.8618 16.3926Z" fill="#CCCCCC"/>
</svg>
